<?xml version="1.0" encoding="utf-8" ?>
<svg baseProfile="tiny" height="250" version="1.2" width="250" xmlns="http://www.w3.org/2000/svg" xmlns:ev="http://www.w3.org/2001/xml-events" xmlns:xlink="http://www.w3.org/1999/xlink"><defs /><line stroke="rgb(64%,64%,64%)" stroke-width="1" x1="50.7812" x2="50.7812" y1="199.2188" y2="250" /><circle cx="70.3125" cy="218.75" fill="rgb(0%,76%,100%)" r="1" /><line stroke="rgb(64%,64%,64%)" stroke-width="1" x1="82.0312" x2="82.0312" y1="199.2188" y2="250" /><circle cx="93.75" cy="218.75" fill="rgb(100%,0%,0%)" r="1" /><line stroke="rgb(64%,64%,64%)" stroke-width="1" x1="113.2812" x2="113.2812" y1="199.2188" y2="250" /><circle cx="132.8125" cy="218.75" fill="rgb(0%,76%,100%)" r="1" /><line stroke="rgb(64%,64%,64%)" stroke-width="1" x1="144.5312" x2="144.5312" y1="199.2188" y2="250" /><circle cx="156.25" cy="218.75" fill="rgb(100%,0%,0%)" r="1" /><line stroke="rgb(64%,64%,64%)" stroke-width="1" x1="175.7812" x2="175.7812" y1="199.2188" y2="250" /><circle cx="195.3125" cy="218.75" fill="rgb(0%,76%,100%)" r="1" /><line stroke="rgb(64%,64%,64%)" stroke-width="1" x1="207.0312" x2="207.0312" y1="199.2188" y2="250" /><circle cx="218.75" cy="218.75" fill="rgb(100%,0%,0%)" r="1" /><line stroke="rgb(64%,64%,64%)" stroke-width="1" x1="230.4688" x2="230.4688" y1="199.2188" y2="250" /><circle cx="242.1875" cy="218.75" fill="rgb(0%,76%,100%)" r="1" /><line stroke="rgb(64%,64%,64%)" stroke-width="1" x1="0" x2="50.7812" y1="199.2188" y2="199.2188" /><circle cx="31.25" cy="179.6875" fill="rgb(0%,76%,100%)" r="1" /><line stroke="rgb(64%,64%,64%)" stroke-width="1" x1="82.0312" x2="113.2812" y1="199.2188" y2="199.2188" /><circle cx="93.75" cy="179.6875" fill="rgb(0%,76%,100%)" r="1" /><line stroke="rgb(64%,64%,64%)" stroke-width="1" x1="144.5312" x2="175.7812" y1="199.2188" y2="199.2188" /><circle cx="156.25" cy="179.6875" fill="rgb(0%,76%,100%)" r="1" /><line stroke="rgb(64%,64%,64%)" stroke-width="1" x1="207.0312" x2="230.4688" y1="199.2188" y2="199.2188" /><circle cx="218.75" cy="179.6875" fill="rgb(0%,76%,100%)" r="1" /><line stroke="rgb(64%,64%,64%)" stroke-width="1" x1="62.5" x2="82.0312" y1="187.5" y2="199.2188" /><circle cx="93.75" cy="179.6875" fill="rgb(0%,76%,100%)" r="1" /><line stroke="rgb(64%,64%,64%)" stroke-width="1" x1="125.0" x2="144.5312" y1="187.5" y2="199.2188" /><circle cx="156.25" cy="179.6875" fill="rgb(0%,76%,100%)" r="1" /><line stroke="rgb(64%,64%,64%)" stroke-width="1" x1="187.5" x2="207.0312" y1="187.5" y2="199.2188" /><circle cx="218.75" cy="179.6875" fill="rgb(0%,76%,100%)" r="1" /><line stroke="rgb(64%,64%,64%)" stroke-width="1" x1="250" x2="230.4688" y1="190.5212" y2="199.2188" /><circle cx="242.1875" cy="218.75" fill="rgb(0%,76%,100%)" r="1" /><line stroke="rgb(64%,64%,64%)" stroke-width="1" x1="62.5" x2="50.7812" y1="187.5" y2="199.2188" /><circle cx="70.3125" cy="218.75" fill="rgb(0%,76%,100%)" r="1" /><line stroke="rgb(64%,64%,64%)" stroke-width="1" x1="125.0" x2="113.2812" y1="187.5" y2="199.2188" /><circle cx="132.8125" cy="218.75" fill="rgb(0%,76%,100%)" r="1" /><line stroke="rgb(64%,64%,64%)" stroke-width="1" x1="187.5" x2="175.7812" y1="187.5" y2="199.2188" /><circle cx="195.3125" cy="218.75" fill="rgb(0%,76%,100%)" r="1" /><line stroke="rgb(64%,64%,64%)" stroke-width="1" x1="0" x2="50.7812" y1="167.9688" y2="167.9688" /><circle cx="31.25" cy="156.25" fill="rgb(100%,0%,0%)" r="1" /><line stroke="rgb(64%,64%,64%)" stroke-width="1" x1="62.5" x2="82.0312" y1="187.5" y2="167.9688" /><circle cx="70.3125" cy="156.25" fill="rgb(0%,76%,100%)" r="1" /><line stroke="rgb(64%,64%,64%)" stroke-width="1" x1="82.0312" x2="113.2812" y1="167.9688" y2="167.9688" /><circle cx="93.75" cy="156.25" fill="rgb(100%,0%,0%)" r="1" /><line stroke="rgb(64%,64%,64%)" stroke-width="1" x1="125.0" x2="144.5312" y1="187.5" y2="167.9688" /><circle cx="132.8125" cy="156.25" fill="rgb(0%,76%,100%)" r="1" /><line stroke="rgb(64%,64%,64%)" stroke-width="1" x1="144.5312" x2="175.7812" y1="167.9688" y2="167.9688" /><circle cx="156.25" cy="156.25" fill="rgb(100%,0%,0%)" r="1" /><line stroke="rgb(64%,64%,64%)" stroke-width="1" x1="187.5" x2="207.0312" y1="187.5" y2="167.9688" /><circle cx="195.3125" cy="156.25" fill="rgb(0%,76%,100%)" r="1" /><line stroke="rgb(64%,64%,64%)" stroke-width="1" x1="207.0312" x2="250" y1="167.9688" y2="167.9688" /><circle cx="218.75" cy="156.25" fill="rgb(100%,0%,0%)" r="1" /><line stroke="rgb(64%,64%,64%)" stroke-width="1" x1="62.5" x2="62.5" y1="187.5" y2="187.5" /><circle cx="93.75" cy="179.6875" fill="rgb(0%,76%,100%)" r="1" /><line stroke="rgb(64%,64%,64%)" stroke-width="1" x1="50.7812" x2="62.5" y1="167.9688" y2="187.5" /><circle cx="70.3125" cy="156.25" fill="rgb(0%,76%,100%)" r="1" /><line stroke="rgb(64%,64%,64%)" stroke-width="1" x1="125.0" x2="125.0" y1="187.5" y2="187.5" /><circle cx="132.8125" cy="156.25" fill="rgb(0%,76%,100%)" r="1" /><line stroke="rgb(64%,64%,64%)" stroke-width="1" x1="113.2812" x2="125.0" y1="167.9688" y2="187.5" /><circle cx="132.8125" cy="156.25" fill="rgb(0%,76%,100%)" r="1" /><line stroke="rgb(64%,64%,64%)" stroke-width="1" x1="187.5" x2="187.5" y1="187.5" y2="187.5" /><circle cx="195.3125" cy="156.25" fill="rgb(0%,76%,100%)" r="1" /><line stroke="rgb(64%,64%,64%)" stroke-width="1" x1="175.7812" x2="187.5" y1="167.9688" y2="187.5" /><circle cx="195.3125" cy="156.25" fill="rgb(0%,76%,100%)" r="1" /><line stroke="rgb(64%,64%,64%)" stroke-width="1" x1="82.0312" x2="82.0312" y1="136.7188" y2="167.9688" /><circle cx="93.75" cy="156.25" fill="rgb(100%,0%,0%)" r="1" /><line stroke="rgb(64%,64%,64%)" stroke-width="1" x1="144.5312" x2="144.5312" y1="125.0" y2="167.9688" /><circle cx="156.25" cy="156.25" fill="rgb(100%,0%,0%)" r="1" /><line stroke="rgb(64%,64%,64%)" stroke-width="1" x1="207.0312" x2="207.0312" y1="125.0" y2="167.9688" /><circle cx="218.75" cy="156.25" fill="rgb(100%,0%,0%)" r="1" /><line stroke="rgb(64%,64%,64%)" stroke-width="1" x1="50.7812" x2="50.7812" y1="136.7188" y2="167.9688" /><circle cx="70.3125" cy="156.25" fill="rgb(0%,76%,100%)" r="1" /><line stroke="rgb(64%,64%,64%)" stroke-width="1" x1="113.2812" x2="113.2812" y1="136.7188" y2="167.9688" /><circle cx="132.8125" cy="156.25" fill="rgb(0%,76%,100%)" r="1" /><line stroke="rgb(64%,64%,64%)" stroke-width="1" x1="175.7812" x2="175.7812" y1="125.0" y2="167.9688" /><circle cx="195.3125" cy="156.25" fill="rgb(0%,76%,100%)" r="1" /><line stroke="rgb(64%,64%,64%)" stroke-width="1" x1="91.1458" x2="50.7812" y1="117.1875" y2="136.7188" /><circle cx="31.25" cy="117.1875" fill="rgb(0%,76%,100%)" r="1" /><line stroke="rgb(64%,64%,64%)" stroke-width="1" x1="82.0312" x2="113.2812" y1="136.7188" y2="136.7188" /><circle cx="93.75" cy="117.1875" fill="rgb(0%,76%,100%)" r="1" /><line stroke="rgb(64%,64%,64%)" stroke-width="1" x1="62.5" x2="82.0312" y1="125.0" y2="136.7188" /><circle cx="93.75" cy="117.1875" fill="rgb(0%,76%,100%)" r="1" /><line stroke="rgb(64%,64%,64%)" stroke-width="1" x1="62.5" x2="50.7812" y1="125.0" y2="136.7188" /><circle cx="70.3125" cy="156.25" fill="rgb(0%,76%,100%)" r="1" /><line stroke="rgb(64%,64%,64%)" stroke-width="1" x1="130.3267" x2="113.2812" y1="119.6733" y2="136.7188" /><circle cx="132.8125" cy="156.25" fill="rgb(0%,76%,100%)" r="1" /><line stroke="rgb(64%,64%,64%)" stroke-width="1" x1="0" x2="19.5312" y1="125.0" y2="105.4688" /><circle cx="7.8125" cy="93.75" fill="rgb(0%,76%,100%)" r="1" /><line stroke="rgb(64%,64%,64%)" stroke-width="1" x1="19.5312" x2="62.5" y1="105.4688" y2="105.4688" /><circle cx="31.25" cy="93.75" fill="rgb(100%,0%,0%)" r="1" /><line stroke="rgb(64%,64%,64%)" stroke-width="1" x1="0" x2="125.0" y1="105.4687" y2="105.4688" /><circle cx="93.75" cy="93.75" fill="rgb(100%,0%,0%)" r="1" /><line stroke="rgb(64%,64%,64%)" stroke-width="1" x1="144.5312" x2="175.7812" y1="125.0" y2="125.0" /><circle cx="156.25" cy="93.75" fill="rgb(100%,0%,0%)" r="1" /><line stroke="rgb(64%,64%,64%)" stroke-width="1" x1="207.0312" x2="250" y1="125.0" y2="125.0" /><circle cx="218.75" cy="93.75" fill="rgb(100%,0%,0%)" r="1" /><line stroke="rgb(64%,64%,64%)" stroke-width="1" x1="62.5" x2="62.5" y1="105.4688" y2="125.0" /><circle cx="93.75" cy="117.1875" fill="rgb(0%,76%,100%)" r="1" /><line stroke="rgb(64%,64%,64%)" stroke-width="1" x1="130.3267" x2="144.5312" y1="119.6733" y2="125.0" /><circle cx="156.25" cy="93.75" fill="rgb(100%,0%,0%)" r="1" /><line stroke="rgb(64%,64%,64%)" stroke-width="1" x1="187.5" x2="207.0312" y1="117.6758" y2="125.0" /><circle cx="218.75" cy="93.75" fill="rgb(100%,0%,0%)" r="1" /><line stroke="rgb(64%,64%,64%)" stroke-width="1" x1="19.5312" x2="19.5312" y1="74.2188" y2="105.4688" /><circle cx="31.25" cy="93.75" fill="rgb(100%,0%,0%)" r="1" /><line stroke="rgb(64%,64%,64%)" stroke-width="1" x1="187.5" x2="175.7812" y1="117.6758" y2="125.0" /><circle cx="195.3125" cy="156.25" fill="rgb(0%,76%,100%)" r="1" /><line stroke="rgb(64%,64%,64%)" stroke-width="1" x1="125.0" x2="130.3267" y1="105.4688" y2="119.6733" /><circle cx="156.25" cy="93.75" fill="rgb(100%,0%,0%)" r="1" /><line stroke="rgb(64%,64%,64%)" stroke-width="1" x1="187.5" x2="187.5" y1="62.5" y2="117.6758" /><circle cx="218.75" cy="93.75" fill="rgb(100%,0%,0%)" r="1" /><line stroke="rgb(64%,64%,64%)" stroke-width="1" x1="74.2188" x2="62.5" y1="74.2188" y2="105.4688" /><circle cx="93.75" cy="117.1875" fill="rgb(0%,76%,100%)" r="1" /><line stroke="rgb(64%,64%,64%)" stroke-width="1" x1="125.0" x2="125.0" y1="62.5" y2="105.4688" /><circle cx="156.25" cy="93.75" fill="rgb(100%,0%,0%)" r="1" /><line stroke="rgb(64%,64%,64%)" stroke-width="1" x1="19.5312" x2="74.2188" y1="74.2188" y2="74.2188" /><circle cx="31.25" cy="54.6875" fill="rgb(0%,76%,100%)" r="1" /><line stroke="rgb(64%,64%,64%)" stroke-width="1" x1="91.1458" x2="19.5312" y1="117.1875" y2="74.2188" /><circle cx="31.25" cy="54.6875" fill="rgb(0%,76%,100%)" r="1" /><line stroke="rgb(64%,64%,64%)" stroke-width="1" x1="0" x2="250" y1="42.9687" y2="42.9687" /><circle cx="31.25" cy="31.25" fill="rgb(100%,0%,0%)" r="1" /><line stroke="rgb(64%,64%,64%)" stroke-width="1" x1="0" x2="125.0" y1="62.5" y2="62.5" /><circle cx="93.75" cy="31.25" fill="rgb(100%,0%,0%)" r="1" /><line stroke="rgb(64%,64%,64%)" stroke-width="1" x1="125.0" x2="187.5" y1="62.5" y2="62.5" /><circle cx="156.25" cy="31.25" fill="rgb(100%,0%,0%)" r="1" /><line stroke="rgb(64%,64%,64%)" stroke-width="1" x1="187.5" x2="250" y1="62.5" y2="62.5" /><circle cx="218.75" cy="31.25" fill="rgb(100%,0%,0%)" r="1" /><line stroke="rgb(64%,64%,64%)" stroke-width="1" x1="0" x2="91.1458" y1="117.1875" y2="117.1875" /><circle cx="31.25" cy="54.6875" fill="rgb(0%,76%,100%)" r="1" /><line stroke="rgb(64%,64%,64%)" stroke-width="1" x1="148.4375" x2="74.2188" y1="0" y2="74.2188" /><circle cx="93.75" cy="117.1875" fill="rgb(0%,76%,100%)" r="1" /><line stroke="rgb(64%,64%,64%)" stroke-width="1" x1="125.0" x2="125.0" y1="62.5" y2="62.5" /><circle cx="156.25" cy="93.75" fill="rgb(100%,0%,0%)" r="1" /><line stroke="rgb(64%,64%,64%)" stroke-width="1" x1="125.0" x2="125.0" y1="0" y2="62.5" /><circle cx="156.25" cy="31.25" fill="rgb(100%,0%,0%)" r="1" /><line stroke="rgb(64%,64%,64%)" stroke-width="1" x1="187.5" x2="187.5" y1="62.5" y2="62.5" /><circle cx="218.75" cy="93.75" fill="rgb(100%,0%,0%)" r="1" /><line stroke="rgb(64%,64%,64%)" stroke-width="1" x1="187.5" x2="187.5" y1="0" y2="62.5" /><circle cx="218.75" cy="31.25" fill="rgb(100%,0%,0%)" r="1" /><line stroke="rgb(64%,64%,64%)" stroke-width="1" x1="0" x2="50.7812" y1="250" y2="250" /><circle cx="31.25" cy="218.75" fill="rgb(100%,0%,0%)" r="1" /><line stroke="rgb(64%,64%,64%)" stroke-width="1" x1="50.7812" x2="82.0312" y1="250" y2="250" /><circle cx="70.3125" cy="218.75" fill="rgb(0%,76%,100%)" r="1" /><line stroke="rgb(64%,64%,64%)" stroke-width="1" x1="82.0312" x2="113.2812" y1="250" y2="250" /><circle cx="93.75" cy="218.75" fill="rgb(100%,0%,0%)" r="1" /><line stroke="rgb(64%,64%,64%)" stroke-width="1" x1="113.2812" x2="144.5312" y1="250" y2="250" /><circle cx="132.8125" cy="218.75" fill="rgb(0%,76%,100%)" r="1" /><line stroke="rgb(64%,64%,64%)" stroke-width="1" x1="144.5312" x2="175.7812" y1="250" y2="250" /><circle cx="156.25" cy="218.75" fill="rgb(100%,0%,0%)" r="1" /><line stroke="rgb(64%,64%,64%)" stroke-width="1" x1="175.7812" x2="207.0312" y1="250" y2="250" /><circle cx="195.3125" cy="218.75" fill="rgb(0%,76%,100%)" r="1" /><line stroke="rgb(64%,64%,64%)" stroke-width="1" x1="207.0312" x2="230.4688" y1="250" y2="250" /><circle cx="218.75" cy="218.75" fill="rgb(100%,0%,0%)" r="1" /><line stroke="rgb(64%,64%,64%)" stroke-width="1" x1="230.4688" x2="250" y1="250" y2="250" /><circle cx="242.1875" cy="218.75" fill="rgb(0%,76%,100%)" r="1" /><line stroke="rgb(64%,64%,64%)" stroke-width="1" x1="250" x2="250" y1="250" y2="190.5212" /><circle cx="242.1875" cy="218.75" fill="rgb(0%,76%,100%)" r="1" /><line stroke="rgb(64%,64%,64%)" stroke-width="1" x1="250" x2="250" y1="190.5212" y2="167.9688" /><circle cx="218.75" cy="179.6875" fill="rgb(0%,76%,100%)" r="1" /><line stroke="rgb(64%,64%,64%)" stroke-width="1" x1="250" x2="250" y1="167.9688" y2="125.0" /><circle cx="218.75" cy="156.25" fill="rgb(100%,0%,0%)" r="1" /><line stroke="rgb(64%,64%,64%)" stroke-width="1" x1="250" x2="250" y1="125.0" y2="62.5" /><circle cx="218.75" cy="93.75" fill="rgb(100%,0%,0%)" r="1" /><line stroke="rgb(64%,64%,64%)" stroke-width="1" x1="250" x2="250" y1="62.5" y2="42.9687" /><circle cx="218.75" cy="31.25" fill="rgb(100%,0%,0%)" r="1" /><line stroke="rgb(64%,64%,64%)" stroke-width="1" x1="250" x2="250" y1="42.9687" y2="0" /><circle cx="31.25" cy="31.25" fill="rgb(100%,0%,0%)" r="1" /><line stroke="rgb(64%,64%,64%)" stroke-width="1" x1="250" x2="187.5" y1="0" y2="0" /><circle cx="31.25" cy="31.25" fill="rgb(100%,0%,0%)" r="1" /><line stroke="rgb(64%,64%,64%)" stroke-width="1" x1="187.5" x2="148.4375" y1="0" y2="0" /><circle cx="156.25" cy="31.25" fill="rgb(100%,0%,0%)" r="1" /><line stroke="rgb(64%,64%,64%)" stroke-width="1" x1="148.4375" x2="125.0" y1="0" y2="0" /><circle cx="31.25" cy="54.6875" fill="rgb(0%,76%,100%)" r="1" /><line stroke="rgb(64%,64%,64%)" stroke-width="1" x1="125.0" x2="0" y1="0" y2="0" /><circle cx="93.75" cy="31.25" fill="rgb(100%,0%,0%)" r="1" /><line stroke="rgb(64%,64%,64%)" stroke-width="1" x1="0" x2="0" y1="0" y2="42.9687" /><circle cx="93.75" cy="31.25" fill="rgb(100%,0%,0%)" r="1" /><line stroke="rgb(64%,64%,64%)" stroke-width="1" x1="0" x2="0" y1="42.9687" y2="62.5" /><circle cx="31.25" cy="54.6875" fill="rgb(0%,76%,100%)" r="1" /><line stroke="rgb(64%,64%,64%)" stroke-width="1" x1="0" x2="0" y1="62.5" y2="105.4687" /><circle cx="93.75" cy="93.75" fill="rgb(100%,0%,0%)" r="1" /><line stroke="rgb(64%,64%,64%)" stroke-width="1" x1="0" x2="0" y1="105.4687" y2="117.1875" /><circle cx="93.75" cy="117.1875" fill="rgb(0%,76%,100%)" r="1" /><line stroke="rgb(64%,64%,64%)" stroke-width="1" x1="0" x2="0" y1="117.1875" y2="125.0" /><circle cx="31.25" cy="179.6875" fill="rgb(0%,76%,100%)" r="1" /><line stroke="rgb(64%,64%,64%)" stroke-width="1" x1="0" x2="0" y1="125.0" y2="167.9688" /><circle cx="31.25" cy="117.1875" fill="rgb(0%,76%,100%)" r="1" /><line stroke="rgb(64%,64%,64%)" stroke-width="1" x1="0" x2="0" y1="167.9688" y2="199.2188" /><circle cx="31.25" cy="179.6875" fill="rgb(0%,76%,100%)" r="1" /><line stroke="rgb(64%,64%,64%)" stroke-width="1" x1="0" x2="0" y1="199.2188" y2="250" /><circle cx="31.25" cy="218.75" fill="rgb(100%,0%,0%)" r="1" /><line stroke="rgb(0%,0%,0%)" stroke-width="2" x1="0" x2="250" y1="0" y2="0" /><line stroke="rgb(0%,0%,0%)" stroke-width="2" x1="0" x2="250" y1="250" y2="250" /><line stroke="rgb(0%,0%,0%)" stroke-width="2" x1="0" x2="0" y1="0" y2="250" /><line stroke="rgb(0%,0%,0%)" stroke-width="2" x1="250" x2="250" y1="0" y2="250" /></svg>