<?xml version="1.0" encoding="utf-8" ?>
<svg baseProfile="tiny" height="250" version="1.2" width="250" xmlns="http://www.w3.org/2000/svg" xmlns:ev="http://www.w3.org/2001/xml-events" xmlns:xlink="http://www.w3.org/1999/xlink"><defs /><line stroke="rgb(64%,64%,64%)" stroke-width="1" x1="62.5" x2="62.5" y1="193.3594" y2="250" /><circle cx="93.75" cy="234.375" fill="rgb(100%,0%,0%)" r="1" /><line stroke="rgb(64%,64%,64%)" stroke-width="1" x1="125.0" x2="125.0" y1="193.3594" y2="250" /><circle cx="156.25" cy="234.375" fill="rgb(100%,0%,0%)" r="1" /><line stroke="rgb(64%,64%,64%)" stroke-width="1" x1="187.5" x2="187.5" y1="225.1156" y2="250" /><circle cx="218.75" cy="234.375" fill="rgb(100%,0%,0%)" r="1" /><line stroke="rgb(64%,64%,64%)" stroke-width="1" x1="21.727" x2="36.3387" y1="250" y2="193.2723" /><circle cx="20.9375" cy="231.7188" fill="rgb(0%,76%,100%)" r="1" /><line stroke="rgb(64%,64%,64%)" stroke-width="1" x1="222.8341" x2="228.273" y1="228.8846" y2="250" /><circle cx="229.0625" cy="231.7188" fill="rgb(0%,76%,100%)" r="1" /><line stroke="rgb(64%,64%,64%)" stroke-width="1" x1="187.5" x2="222.8341" y1="225.1156" y2="228.8846" /><circle cx="220.0" cy="222.6562" fill="rgb(0%,76%,100%)" r="1" /><line stroke="rgb(64%,64%,64%)" stroke-width="1" x1="250" x2="222.8341" y1="201.7188" y2="228.8846" /><circle cx="229.0625" cy="231.7188" fill="rgb(0%,76%,100%)" r="1" /><line stroke="rgb(64%,64%,64%)" stroke-width="1" x1="181.6625" x2="187.5" y1="193.3594" y2="225.1156" /><circle cx="220.0" cy="222.6562" fill="rgb(0%,76%,100%)" r="1" /><line stroke="rgb(64%,64%,64%)" stroke-width="1" x1="0" x2="36.3387" y1="189.1234" y2="193.2723" /><circle cx="30.0" cy="152.3438" fill="rgb(0%,76%,100%)" r="1" /><line stroke="rgb(64%,64%,64%)" stroke-width="1" x1="62.5" x2="125.0" y1="193.3594" y2="193.3594" /><circle cx="93.75" cy="152.3438" fill="rgb(0%,76%,100%)" r="1" /><line stroke="rgb(64%,64%,64%)" stroke-width="1" x1="125.0" x2="181.6625" y1="193.3594" y2="193.3594" /><circle cx="156.25" cy="152.3438" fill="rgb(0%,76%,100%)" r="1" /><line stroke="rgb(64%,64%,64%)" stroke-width="1" x1="61.875" x2="36.3387" y1="192.8832" y2="193.2723" /><circle cx="31.25" cy="234.375" fill="rgb(100%,0%,0%)" r="1" /><line stroke="rgb(64%,64%,64%)" stroke-width="1" x1="194.1638" x2="181.6625" y1="182.0248" y2="193.3594" /><circle cx="220.0" cy="222.6562" fill="rgb(0%,76%,100%)" r="1" /><line stroke="rgb(64%,64%,64%)" stroke-width="1" x1="0" x2="27.4449" y1="177.9812" y2="146.1452" /><circle cx="20.9375" cy="144.5312" fill="rgb(0%,76%,100%)" r="1" /><line stroke="rgb(64%,64%,64%)" stroke-width="1" x1="209.0503" x2="250" y1="181.798" y2="186.5481" /><circle cx="229.0625" cy="144.5312" fill="rgb(0%,76%,100%)" r="1" /><line stroke="rgb(64%,64%,64%)" stroke-width="1" x1="61.875" x2="62.5" y1="192.8832" y2="193.3594" /><circle cx="93.75" cy="152.3438" fill="rgb(0%,76%,100%)" r="1" /><line stroke="rgb(64%,64%,64%)" stroke-width="1" x1="125.0" x2="125.0" y1="193.3594" y2="193.3594" /><circle cx="156.25" cy="152.3438" fill="rgb(0%,76%,100%)" r="1" /><line stroke="rgb(64%,64%,64%)" stroke-width="1" x1="125.0" x2="125.0" y1="146.4844" y2="193.3594" /><circle cx="156.25" cy="152.3438" fill="rgb(0%,76%,100%)" r="1" /><line stroke="rgb(64%,64%,64%)" stroke-width="1" x1="61.875" x2="61.875" y1="149.8177" y2="192.8832" /><circle cx="93.75" cy="152.3438" fill="rgb(0%,76%,100%)" r="1" /><line stroke="rgb(64%,64%,64%)" stroke-width="1" x1="27.4449" x2="61.875" y1="146.1452" y2="149.8177" /><circle cx="31.25" cy="140.625" fill="rgb(100%,0%,0%)" r="1" /><line stroke="rgb(64%,64%,64%)" stroke-width="1" x1="62.5" x2="125.0" y1="146.4844" y2="146.4844" /><circle cx="93.75" cy="140.625" fill="rgb(100%,0%,0%)" r="1" /><line stroke="rgb(64%,64%,64%)" stroke-width="1" x1="125.0" x2="187.5" y1="146.4844" y2="146.4844" /><circle cx="156.25" cy="140.625" fill="rgb(100%,0%,0%)" r="1" /><line stroke="rgb(64%,64%,64%)" stroke-width="1" x1="209.0503" x2="230.5646" y1="181.798" y2="125.0" /><circle cx="218.75" cy="140.625" fill="rgb(100%,0%,0%)" r="1" /><line stroke="rgb(64%,64%,64%)" stroke-width="1" x1="194.1638" x2="209.0503" y1="182.0248" y2="181.798" /><circle cx="218.75" cy="140.625" fill="rgb(100%,0%,0%)" r="1" /><line stroke="rgb(64%,64%,64%)" stroke-width="1" x1="19.4354" x2="27.4449" y1="125.0" y2="146.1452" /><circle cx="31.25" cy="140.625" fill="rgb(100%,0%,0%)" r="1" /><line stroke="rgb(64%,64%,64%)" stroke-width="1" x1="187.5" x2="194.1638" y1="146.4844" y2="182.0248" /><circle cx="218.75" cy="140.625" fill="rgb(100%,0%,0%)" r="1" /><line stroke="rgb(64%,64%,64%)" stroke-width="1" x1="62.5" x2="61.875" y1="146.4844" y2="149.8177" /><circle cx="93.75" cy="152.3438" fill="rgb(0%,76%,100%)" r="1" /><line stroke="rgb(64%,64%,64%)" stroke-width="1" x1="62.5" x2="62.5" y1="125.0" y2="146.4844" /><circle cx="93.75" cy="140.625" fill="rgb(100%,0%,0%)" r="1" /><line stroke="rgb(64%,64%,64%)" stroke-width="1" x1="125.0" x2="125.0" y1="146.4844" y2="146.4844" /><circle cx="156.25" cy="140.625" fill="rgb(100%,0%,0%)" r="1" /><line stroke="rgb(64%,64%,64%)" stroke-width="1" x1="125.0" x2="125.0" y1="125.0" y2="146.4844" /><circle cx="156.25" cy="140.625" fill="rgb(100%,0%,0%)" r="1" /><line stroke="rgb(64%,64%,64%)" stroke-width="1" x1="187.5" x2="187.5" y1="125.0" y2="146.4844" /><circle cx="218.75" cy="140.625" fill="rgb(100%,0%,0%)" r="1" /><line stroke="rgb(64%,64%,64%)" stroke-width="1" x1="19.4354" x2="62.5" y1="125.0" y2="125.0" /><circle cx="31.25" cy="109.375" fill="rgb(100%,0%,0%)" r="1" /><line stroke="rgb(64%,64%,64%)" stroke-width="1" x1="62.5" x2="125.0" y1="125.0" y2="125.0" /><circle cx="93.75" cy="109.375" fill="rgb(100%,0%,0%)" r="1" /><line stroke="rgb(64%,64%,64%)" stroke-width="1" x1="125.0" x2="187.5" y1="125.0" y2="125.0" /><circle cx="156.25" cy="109.375" fill="rgb(100%,0%,0%)" r="1" /><line stroke="rgb(64%,64%,64%)" stroke-width="1" x1="187.5" x2="230.5646" y1="125.0" y2="125.0" /><circle cx="218.75" cy="109.375" fill="rgb(100%,0%,0%)" r="1" /><line stroke="rgb(64%,64%,64%)" stroke-width="1" x1="19.4354" x2="40.9497" y1="125.0" y2="68.202" /><circle cx="20.9375" cy="105.4688" fill="rgb(0%,76%,100%)" r="1" /><line stroke="rgb(64%,64%,64%)" stroke-width="1" x1="19.4354" x2="19.4354" y1="125.0" y2="125.0" /><circle cx="31.25" cy="109.375" fill="rgb(100%,0%,0%)" r="1" /><line stroke="rgb(64%,64%,64%)" stroke-width="1" x1="0" x2="19.4354" y1="125.0" y2="125.0" /><circle cx="20.9375" cy="105.4688" fill="rgb(0%,76%,100%)" r="1" /><line stroke="rgb(64%,64%,64%)" stroke-width="1" x1="250" x2="230.5646" y1="120.7477" y2="125.0" /><circle cx="229.0625" cy="144.5312" fill="rgb(0%,76%,100%)" r="1" /><line stroke="rgb(64%,64%,64%)" stroke-width="1" x1="187.5" x2="250" y1="100.1156" y2="106.7823" /><circle cx="220.0" cy="97.6562" fill="rgb(0%,76%,100%)" r="1" /><line stroke="rgb(64%,64%,64%)" stroke-width="1" x1="62.5" x2="62.5" y1="125.0" y2="125.0" /><circle cx="93.75" cy="140.625" fill="rgb(100%,0%,0%)" r="1" /><line stroke="rgb(64%,64%,64%)" stroke-width="1" x1="62.5" x2="62.5" y1="68.3594" y2="125.0" /><circle cx="93.75" cy="109.375" fill="rgb(100%,0%,0%)" r="1" /><line stroke="rgb(64%,64%,64%)" stroke-width="1" x1="125.0" x2="125.0" y1="125.0" y2="125.0" /><circle cx="156.25" cy="109.375" fill="rgb(100%,0%,0%)" r="1" /><line stroke="rgb(64%,64%,64%)" stroke-width="1" x1="125.0" x2="125.0" y1="68.3594" y2="125.0" /><circle cx="156.25" cy="109.375" fill="rgb(100%,0%,0%)" r="1" /><line stroke="rgb(64%,64%,64%)" stroke-width="1" x1="187.5" x2="187.5" y1="125.0" y2="125.0" /><circle cx="218.75" cy="140.625" fill="rgb(100%,0%,0%)" r="1" /><line stroke="rgb(64%,64%,64%)" stroke-width="1" x1="187.5" x2="187.5" y1="100.1156" y2="125.0" /><circle cx="218.75" cy="109.375" fill="rgb(100%,0%,0%)" r="1" /><line stroke="rgb(64%,64%,64%)" stroke-width="1" x1="181.6625" x2="187.5" y1="68.3594" y2="100.1156" /><circle cx="220.0" cy="97.6562" fill="rgb(0%,76%,100%)" r="1" /><line stroke="rgb(64%,64%,64%)" stroke-width="1" x1="0" x2="40.9497" y1="63.4519" y2="68.202" /><circle cx="30.0" cy="27.3438" fill="rgb(0%,76%,100%)" r="1" /><line stroke="rgb(64%,64%,64%)" stroke-width="1" x1="62.5" x2="125.0" y1="68.3594" y2="68.3594" /><circle cx="93.75" cy="27.3438" fill="rgb(0%,76%,100%)" r="1" /><line stroke="rgb(64%,64%,64%)" stroke-width="1" x1="125.0" x2="181.6625" y1="68.3594" y2="68.3594" /><circle cx="156.25" cy="27.3438" fill="rgb(0%,76%,100%)" r="1" /><line stroke="rgb(64%,64%,64%)" stroke-width="1" x1="61.875" x2="40.9497" y1="67.8832" y2="68.202" /><circle cx="31.25" cy="109.375" fill="rgb(100%,0%,0%)" r="1" /><line stroke="rgb(64%,64%,64%)" stroke-width="1" x1="194.1638" x2="181.6625" y1="57.0248" y2="68.3594" /><circle cx="220.0" cy="97.6562" fill="rgb(0%,76%,100%)" r="1" /><line stroke="rgb(64%,64%,64%)" stroke-width="1" x1="213.6613" x2="250" y1="56.7277" y2="60.8766" /><circle cx="229.0625" cy="18.2813" fill="rgb(0%,76%,100%)" r="1" /><line stroke="rgb(64%,64%,64%)" stroke-width="1" x1="0" x2="27.1659" y1="48.2812" y2="21.1154" /><circle cx="20.9375" cy="18.2812" fill="rgb(0%,76%,100%)" r="1" /><line stroke="rgb(64%,64%,64%)" stroke-width="1" x1="61.875" x2="62.5" y1="67.8832" y2="68.3594" /><circle cx="93.75" cy="27.3438" fill="rgb(0%,76%,100%)" r="1" /><line stroke="rgb(64%,64%,64%)" stroke-width="1" x1="125.0" x2="125.0" y1="68.3594" y2="68.3594" /><circle cx="156.25" cy="109.375" fill="rgb(100%,0%,0%)" r="1" /><line stroke="rgb(64%,64%,64%)" stroke-width="1" x1="125.0" x2="125.0" y1="21.4844" y2="68.3594" /><circle cx="156.25" cy="27.3438" fill="rgb(0%,76%,100%)" r="1" /><line stroke="rgb(64%,64%,64%)" stroke-width="1" x1="61.875" x2="61.875" y1="24.8177" y2="67.8832" /><circle cx="93.75" cy="27.3438" fill="rgb(0%,76%,100%)" r="1" /><line stroke="rgb(64%,64%,64%)" stroke-width="1" x1="27.1659" x2="61.875" y1="21.1154" y2="24.8177" /><circle cx="31.25" cy="15.625" fill="rgb(100%,0%,0%)" r="1" /><line stroke="rgb(64%,64%,64%)" stroke-width="1" x1="62.5" x2="125.0" y1="21.4844" y2="21.4844" /><circle cx="93.75" cy="15.625" fill="rgb(100%,0%,0%)" r="1" /><line stroke="rgb(64%,64%,64%)" stroke-width="1" x1="125.0" x2="187.5" y1="21.4844" y2="21.4844" /><circle cx="156.25" cy="15.625" fill="rgb(100%,0%,0%)" r="1" /><line stroke="rgb(64%,64%,64%)" stroke-width="1" x1="213.6613" x2="228.273" y1="56.7277" y2="0" /><circle cx="218.75" cy="15.625" fill="rgb(100%,0%,0%)" r="1" /><line stroke="rgb(64%,64%,64%)" stroke-width="1" x1="194.1638" x2="213.6613" y1="57.0248" y2="56.7277" /><circle cx="218.75" cy="15.625" fill="rgb(100%,0%,0%)" r="1" /><line stroke="rgb(64%,64%,64%)" stroke-width="1" x1="21.727" x2="27.1659" y1="0" y2="21.1154" /><circle cx="31.25" cy="15.625" fill="rgb(100%,0%,0%)" r="1" /><line stroke="rgb(64%,64%,64%)" stroke-width="1" x1="187.5" x2="194.1638" y1="21.4844" y2="57.0248" /><circle cx="218.75" cy="15.625" fill="rgb(100%,0%,0%)" r="1" /><line stroke="rgb(64%,64%,64%)" stroke-width="1" x1="62.5" x2="61.875" y1="21.4844" y2="24.8177" /><circle cx="93.75" cy="27.3438" fill="rgb(0%,76%,100%)" r="1" /><line stroke="rgb(64%,64%,64%)" stroke-width="1" x1="62.5" x2="62.5" y1="0" y2="21.4844" /><circle cx="93.75" cy="15.625" fill="rgb(100%,0%,0%)" r="1" /><line stroke="rgb(64%,64%,64%)" stroke-width="1" x1="125.0" x2="125.0" y1="21.4844" y2="21.4844" /><circle cx="156.25" cy="27.3438" fill="rgb(0%,76%,100%)" r="1" /><line stroke="rgb(64%,64%,64%)" stroke-width="1" x1="125.0" x2="125.0" y1="0" y2="21.4844" /><circle cx="156.25" cy="15.625" fill="rgb(100%,0%,0%)" r="1" /><line stroke="rgb(64%,64%,64%)" stroke-width="1" x1="187.5" x2="187.5" y1="0" y2="21.4844" /><circle cx="218.75" cy="15.625" fill="rgb(100%,0%,0%)" r="1" /><line stroke="rgb(64%,64%,64%)" stroke-width="1" x1="0" x2="21.727" y1="250" y2="250" /><circle cx="31.25" cy="234.375" fill="rgb(100%,0%,0%)" r="1" /><line stroke="rgb(64%,64%,64%)" stroke-width="1" x1="21.727" x2="62.5" y1="250" y2="250" /><circle cx="31.25" cy="234.375" fill="rgb(100%,0%,0%)" r="1" /><line stroke="rgb(64%,64%,64%)" stroke-width="1" x1="62.5" x2="125.0" y1="250" y2="250" /><circle cx="93.75" cy="234.375" fill="rgb(100%,0%,0%)" r="1" /><line stroke="rgb(64%,64%,64%)" stroke-width="1" x1="125.0" x2="187.5" y1="250" y2="250" /><circle cx="156.25" cy="234.375" fill="rgb(100%,0%,0%)" r="1" /><line stroke="rgb(64%,64%,64%)" stroke-width="1" x1="187.5" x2="228.273" y1="250" y2="250" /><circle cx="218.75" cy="234.375" fill="rgb(100%,0%,0%)" r="1" /><line stroke="rgb(64%,64%,64%)" stroke-width="1" x1="228.273" x2="250" y1="250" y2="250" /><circle cx="229.0625" cy="231.7188" fill="rgb(0%,76%,100%)" r="1" /><line stroke="rgb(64%,64%,64%)" stroke-width="1" x1="250" x2="250" y1="250" y2="201.7188" /><circle cx="229.0625" cy="231.7188" fill="rgb(0%,76%,100%)" r="1" /><line stroke="rgb(64%,64%,64%)" stroke-width="1" x1="250" x2="250" y1="201.7188" y2="186.5481" /><circle cx="220.0" cy="222.6562" fill="rgb(0%,76%,100%)" r="1" /><line stroke="rgb(64%,64%,64%)" stroke-width="1" x1="250" x2="250" y1="186.5481" y2="120.7477" /><circle cx="229.0625" cy="144.5312" fill="rgb(0%,76%,100%)" r="1" /><line stroke="rgb(64%,64%,64%)" stroke-width="1" x1="250" x2="250" y1="120.7477" y2="106.7823" /><circle cx="218.75" cy="109.375" fill="rgb(100%,0%,0%)" r="1" /><line stroke="rgb(64%,64%,64%)" stroke-width="1" x1="250" x2="250" y1="106.7823" y2="60.8766" /><circle cx="220.0" cy="97.6562" fill="rgb(0%,76%,100%)" r="1" /><line stroke="rgb(64%,64%,64%)" stroke-width="1" x1="250" x2="250" y1="60.8766" y2="0" /><circle cx="229.0625" cy="18.2813" fill="rgb(0%,76%,100%)" r="1" /><line stroke="rgb(64%,64%,64%)" stroke-width="1" x1="250" x2="228.273" y1="0" y2="0" /><circle cx="229.0625" cy="18.2813" fill="rgb(0%,76%,100%)" r="1" /><line stroke="rgb(64%,64%,64%)" stroke-width="1" x1="228.273" x2="187.5" y1="0" y2="0" /><circle cx="218.75" cy="15.625" fill="rgb(100%,0%,0%)" r="1" /><line stroke="rgb(64%,64%,64%)" stroke-width="1" x1="187.5" x2="125.0" y1="0" y2="0" /><circle cx="156.25" cy="15.625" fill="rgb(100%,0%,0%)" r="1" /><line stroke="rgb(64%,64%,64%)" stroke-width="1" x1="125.0" x2="62.5" y1="0" y2="0" /><circle cx="93.75" cy="15.625" fill="rgb(100%,0%,0%)" r="1" /><line stroke="rgb(64%,64%,64%)" stroke-width="1" x1="62.5" x2="21.727" y1="0" y2="0" /><circle cx="31.25" cy="15.625" fill="rgb(100%,0%,0%)" r="1" /><line stroke="rgb(64%,64%,64%)" stroke-width="1" x1="21.727" x2="0" y1="0" y2="0" /><circle cx="20.9375" cy="18.2812" fill="rgb(0%,76%,100%)" r="1" /><line stroke="rgb(64%,64%,64%)" stroke-width="1" x1="0" x2="0" y1="0" y2="48.2812" /><circle cx="20.9375" cy="18.2812" fill="rgb(0%,76%,100%)" r="1" /><line stroke="rgb(64%,64%,64%)" stroke-width="1" x1="0" x2="0" y1="48.2812" y2="63.4519" /><circle cx="30.0" cy="27.3438" fill="rgb(0%,76%,100%)" r="1" /><line stroke="rgb(64%,64%,64%)" stroke-width="1" x1="0" x2="0" y1="63.4519" y2="125.0" /><circle cx="20.9375" cy="105.4688" fill="rgb(0%,76%,100%)" r="1" /><line stroke="rgb(64%,64%,64%)" stroke-width="1" x1="0" x2="0" y1="125.0" y2="177.9812" /><circle cx="20.9375" cy="144.5312" fill="rgb(0%,76%,100%)" r="1" /><line stroke="rgb(64%,64%,64%)" stroke-width="1" x1="0" x2="0" y1="177.9812" y2="189.1234" /><circle cx="30.0" cy="152.3438" fill="rgb(0%,76%,100%)" r="1" /><line stroke="rgb(64%,64%,64%)" stroke-width="1" x1="0" x2="0" y1="189.1234" y2="250" /><circle cx="20.9375" cy="231.7188" fill="rgb(0%,76%,100%)" r="1" /><line stroke="rgb(0%,0%,0%)" stroke-width="2" x1="0" x2="250" y1="0" y2="0" /><line stroke="rgb(0%,0%,0%)" stroke-width="2" x1="0" x2="250" y1="250" y2="250" /><line stroke="rgb(0%,0%,0%)" stroke-width="2" x1="0" x2="0" y1="0" y2="250" /><line stroke="rgb(0%,0%,0%)" stroke-width="2" x1="250" x2="250" y1="0" y2="250" /></svg>