<?xml version="1.0" encoding="utf-8" ?>
<svg baseProfile="tiny" height="100%" version="1.2" width="100%" xmlns="http://www.w3.org/2000/svg" xmlns:ev="http://www.w3.org/2001/xml-events" xmlns:xlink="http://www.w3.org/1999/xlink"><defs /><line stroke="rgb(64%,64%,64%)" stroke-width="5" x1="12.813" x2="12.813" y1="25" y2="25" /><circle cx="3.8228" cy="21.9575" fill="rgb(100%,0%,0%)" r="1" /><line stroke="rgb(64%,64%,64%)" stroke-width="5" x1="1.1349" x2="4.2214" y1="25" y2="18.2559" /><circle cx="1.6805" cy="20.9771" fill="rgb(100%,0%,0%)" r="1" /><line stroke="rgb(64%,64%,64%)" stroke-width="5" x1="10.7097" x2="25" y1="23.4938" y2="14.5892" /><circle cx="17.2938" cy="20.9565" fill="rgb(0%,76%,100%)" r="1" /><line stroke="rgb(64%,64%,64%)" stroke-width="5" x1="4.3499" x2="10.7097" y1="18.2127" y2="23.4938" /><circle cx="7.9342" cy="17.0065" fill="rgb(0%,76%,100%)" r="1" /><line stroke="rgb(64%,64%,64%)" stroke-width="5" x1="14.4936" x2="10.7097" y1="14.5276" y2="23.4938" /><circle cx="17.2938" cy="20.9565" fill="rgb(0%,76%,100%)" r="1" /><line stroke="rgb(64%,64%,64%)" stroke-width="5" x1="0" x2="4.2214" y1="18.2672" y2="18.2559" /><circle cx="1.666" cy="15.5484" fill="rgb(100%,0%,0%)" r="1" /><line stroke="rgb(64%,64%,64%)" stroke-width="5" x1="4.3499" x2="4.2214" y1="18.2127" y2="18.2559" /><circle cx="3.8228" cy="21.9575" fill="rgb(100%,0%,0%)" r="1" /><line stroke="rgb(64%,64%,64%)" stroke-width="5" x1="5.4446" x2="4.3499" y1="13.5065" y2="18.2127" /><circle cx="7.9342" cy="17.0065" fill="rgb(0%,76%,100%)" r="1" /><line stroke="rgb(64%,64%,64%)" stroke-width="5" x1="5.4446" x2="14.405" y1="13.5065" y2="14.4572" /><circle cx="8.6131" cy="10.6068" fill="rgb(100%,0%,0%)" r="1" /><line stroke="rgb(64%,64%,64%)" stroke-width="5" x1="0" x2="5.4446" y1="5.8521" y2="13.5065" /><circle cx="8.6131" cy="10.6068" fill="rgb(100%,0%,0%)" r="1" /><line stroke="rgb(64%,64%,64%)" stroke-width="5" x1="14.4936" x2="0" y1="14.5276" y2="22.0" /><circle cx="15.428" cy="7.5779" fill="rgb(100%,0%,0%)" r="1" /><line stroke="rgb(64%,64%,64%)" stroke-width="5" x1="14.405" x2="14.4936" y1="14.4572" y2="14.5276" /><circle cx="15.428" cy="7.5779" fill="rgb(100%,0%,0%)" r="1" /><line stroke="rgb(64%,64%,64%)" stroke-width="5" x1="10.2837" x2="14.405" y1="5.1846" y2="14.4572" /><circle cx="15.428" cy="7.5779" fill="rgb(100%,0%,0%)" r="1" /><line stroke="rgb(64%,64%,64%)" stroke-width="5" x1="0" x2="10.2837" y1="5.7992" y2="5.1846" /><circle cx="7.9793" cy="0" fill="rgb(0%,76%,100%)" r="1" /><line stroke="rgb(64%,64%,64%)" stroke-width="5" x1="0" x2="10.2837" y1="15.293" y2="5.1846" /><circle cx="15.428" cy="7.5779" fill="rgb(100%,0%,0%)" r="1" /><line stroke="rgb(64%,64%,64%)" stroke-width="5" x1="0" x2="1.1349" y1="25" y2="25" /><circle cx="22.304" cy="25" fill="rgb(0%,76%,100%)" r="1" /><line stroke="rgb(64%,64%,64%)" stroke-width="5" x1="1.1349" x2="12.813" y1="25" y2="25" /><circle cx="3.8228" cy="21.9575" fill="rgb(100%,0%,0%)" r="1" /><line stroke="rgb(64%,64%,64%)" stroke-width="5" x1="12.813" x2="12.813" y1="25" y2="25" /><circle cx="22.304" cy="25" fill="rgb(0%,76%,100%)" r="1" /><line stroke="rgb(64%,64%,64%)" stroke-width="5" x1="12.813" x2="25" y1="25" y2="25" /><circle cx="3.8228" cy="21.9575" fill="rgb(100%,0%,0%)" r="1" /><line stroke="rgb(64%,64%,64%)" stroke-width="5" x1="25" x2="25" y1="25" y2="14.5892" /><circle cx="3.8228" cy="21.9575" fill="rgb(100%,0%,0%)" r="1" /><line stroke="rgb(64%,64%,64%)" stroke-width="5" x1="25" x2="25" y1="14.5892" y2="0" /><circle cx="17.2938" cy="20.9565" fill="rgb(0%,76%,100%)" r="1" /><line stroke="rgb(64%,64%,64%)" stroke-width="5" x1="25" x2="0" y1="0" y2="0" /><circle cx="17.2938" cy="20.9565" fill="rgb(0%,76%,100%)" r="1" /><line stroke="rgb(64%,64%,64%)" stroke-width="5" x1="0" x2="0" y1="0" y2="5.7992" /><circle cx="17.2938" cy="20.9565" fill="rgb(0%,76%,100%)" r="1" /><line stroke="rgb(64%,64%,64%)" stroke-width="5" x1="0" x2="0" y1="5.7992" y2="5.8521" /><circle cx="8.6131" cy="10.6068" fill="rgb(100%,0%,0%)" r="1" /><line stroke="rgb(64%,64%,64%)" stroke-width="5" x1="0" x2="0" y1="5.8521" y2="15.293" /><circle cx="1.666" cy="15.5484" fill="rgb(100%,0%,0%)" r="1" /><line stroke="rgb(64%,64%,64%)" stroke-width="5" x1="0" x2="0" y1="15.293" y2="18.2672" /><circle cx="7.9793" cy="0" fill="rgb(0%,76%,100%)" r="1" /><line stroke="rgb(64%,64%,64%)" stroke-width="5" x1="0" x2="0" y1="18.2672" y2="22.0" /><circle cx="1.6805" cy="20.9771" fill="rgb(100%,0%,0%)" r="1" /><line stroke="rgb(64%,64%,64%)" stroke-width="5" x1="0" x2="0" y1="22.0" y2="25" /><circle cx="15.428" cy="7.5779" fill="rgb(100%,0%,0%)" r="1" /><line stroke="rgb(0%,0%,0%)" stroke-width="5" x1="0" x2="25" y1="0" y2="0" /><line stroke="rgb(0%,0%,0%)" stroke-width="5" x1="0" x2="25" y1="25" y2="25" /><line stroke="rgb(0%,0%,0%)" stroke-width="5" x1="0" x2="0" y1="0" y2="25" /><line stroke="rgb(0%,0%,0%)" stroke-width="5" x1="25" x2="25" y1="0" y2="25" /></svg>