<?xml version="1.0" encoding="utf-8" ?>
<svg baseProfile="tiny" height="250" version="1.2" width="250" xmlns="http://www.w3.org/2000/svg" xmlns:ev="http://www.w3.org/2001/xml-events" xmlns:xlink="http://www.w3.org/1999/xlink"><defs /><circle cx="125.0" cy="250.0" fill="rgb(0%,76%,100%)" r="1" /><circle cx="187.5" cy="250.0" fill="rgb(0%,76%,100%)" r="1" /><line stroke="rgb(64%,64%,64%)" stroke-width="1" x1="31.25" x2="62.5" y1="250.0" y2="218.75" /><circle cx="31.25" cy="218.75" fill="rgb(100%,0%,0%)" r="1" /><line stroke="rgb(64%,64%,64%)" stroke-width="1" x1="62.5" x2="93.75" y1="218.75" y2="250.0" /><circle cx="93.75" cy="218.75" fill="rgb(100%,0%,0%)" r="1" /><line stroke="rgb(64%,64%,64%)" stroke-width="1" x1="125.0" x2="93.75" y1="218.75" y2="250.0" /><circle cx="125.0" cy="250.0" fill="rgb(0%,76%,100%)" r="1" /><line stroke="rgb(64%,64%,64%)" stroke-width="1" x1="125.0" x2="156.25" y1="218.75" y2="250.0" /><circle cx="156.25" cy="218.75" fill="rgb(100%,0%,0%)" r="1" /><line stroke="rgb(64%,64%,64%)" stroke-width="1" x1="187.5" x2="156.25" y1="218.75" y2="250.0" /><circle cx="187.5" cy="250.0" fill="rgb(0%,76%,100%)" r="1" /><line stroke="rgb(64%,64%,64%)" stroke-width="1" x1="187.5" x2="218.75" y1="218.75" y2="250.0" /><circle cx="218.75" cy="218.75" fill="rgb(100%,0%,0%)" r="1" /><line stroke="rgb(64%,64%,64%)" stroke-width="1" x1="-0.0" x2="31.25" y1="218.75" y2="187.5" /><circle cx="0.0" cy="187.5" fill="rgb(0%,76%,100%)" r="1" /><line stroke="rgb(64%,64%,64%)" stroke-width="1" x1="62.5" x2="62.5" y1="218.75" y2="218.75" /><circle cx="93.75" cy="218.75" fill="rgb(100%,0%,0%)" r="1" /><line stroke="rgb(64%,64%,64%)" stroke-width="1" x1="31.25" x2="62.5" y1="187.5" y2="218.75" /><circle cx="62.5" cy="187.5" fill="rgb(0%,76%,100%)" r="1" /><line stroke="rgb(64%,64%,64%)" stroke-width="1" x1="93.75" x2="62.5" y1="187.5" y2="218.75" /><circle cx="93.75" cy="218.75" fill="rgb(100%,0%,0%)" r="1" /><line stroke="rgb(64%,64%,64%)" stroke-width="1" x1="125.0" x2="125.0" y1="218.75" y2="218.75" /><circle cx="156.25" cy="218.75" fill="rgb(100%,0%,0%)" r="1" /><line stroke="rgb(64%,64%,64%)" stroke-width="1" x1="93.75" x2="125.0" y1="187.5" y2="218.75" /><circle cx="125.0" cy="187.5" fill="rgb(0%,76%,100%)" r="1" /><line stroke="rgb(64%,64%,64%)" stroke-width="1" x1="156.25" x2="125.0" y1="187.5" y2="218.75" /><circle cx="156.25" cy="218.75" fill="rgb(100%,0%,0%)" r="1" /><line stroke="rgb(64%,64%,64%)" stroke-width="1" x1="187.5" x2="187.5" y1="218.75" y2="218.75" /><circle cx="218.75" cy="218.75" fill="rgb(100%,0%,0%)" r="1" /><line stroke="rgb(64%,64%,64%)" stroke-width="1" x1="156.25" x2="187.5" y1="187.5" y2="218.75" /><circle cx="187.5" cy="187.5" fill="rgb(0%,76%,100%)" r="1" /><line stroke="rgb(64%,64%,64%)" stroke-width="1" x1="218.75" x2="187.5" y1="187.5" y2="218.75" /><circle cx="218.75" cy="218.75" fill="rgb(100%,0%,0%)" r="1" /><line stroke="rgb(64%,64%,64%)" stroke-width="1" x1="218.75" x2="250.0" y1="187.5" y2="218.75" /><circle cx="250.0" cy="187.5" fill="rgb(0%,76%,100%)" r="1" /><line stroke="rgb(64%,64%,64%)" stroke-width="1" x1="31.25" x2="31.25" y1="187.5" y2="187.5" /><circle cx="62.5" cy="187.5" fill="rgb(0%,76%,100%)" r="1" /><line stroke="rgb(64%,64%,64%)" stroke-width="1" x1="-0.0" x2="31.25" y1="156.25" y2="187.5" /><circle cx="31.25" cy="156.25" fill="rgb(100%,0%,0%)" r="1" /><line stroke="rgb(64%,64%,64%)" stroke-width="1" x1="62.5" x2="31.25" y1="156.25" y2="187.5" /><circle cx="62.5" cy="187.5" fill="rgb(0%,76%,100%)" r="1" /><line stroke="rgb(64%,64%,64%)" stroke-width="1" x1="93.75" x2="93.75" y1="187.5" y2="187.5" /><circle cx="125.0" cy="187.5" fill="rgb(0%,76%,100%)" r="1" /><line stroke="rgb(64%,64%,64%)" stroke-width="1" x1="62.5" x2="93.75" y1="156.25" y2="187.5" /><circle cx="93.75" cy="156.25" fill="rgb(100%,0%,0%)" r="1" /><line stroke="rgb(64%,64%,64%)" stroke-width="1" x1="125.0" x2="93.75" y1="156.25" y2="187.5" /><circle cx="125.0" cy="187.5" fill="rgb(0%,76%,100%)" r="1" /><line stroke="rgb(64%,64%,64%)" stroke-width="1" x1="156.25" x2="156.25" y1="187.5" y2="187.5" /><circle cx="187.5" cy="187.5" fill="rgb(0%,76%,100%)" r="1" /><line stroke="rgb(64%,64%,64%)" stroke-width="1" x1="125.0" x2="156.25" y1="156.25" y2="187.5" /><circle cx="156.25" cy="156.25" fill="rgb(100%,0%,0%)" r="1" /><line stroke="rgb(64%,64%,64%)" stroke-width="1" x1="187.5" x2="156.25" y1="156.25" y2="187.5" /><circle cx="187.5" cy="187.5" fill="rgb(0%,76%,100%)" r="1" /><line stroke="rgb(64%,64%,64%)" stroke-width="1" x1="187.5" x2="218.75" y1="156.25" y2="187.5" /><circle cx="218.75" cy="156.25" fill="rgb(100%,0%,0%)" r="1" /><line stroke="rgb(64%,64%,64%)" stroke-width="1" x1="218.75" x2="218.75" y1="187.5" y2="187.5" /><circle cx="218.75" cy="218.75" fill="rgb(100%,0%,0%)" r="1" /><line stroke="rgb(64%,64%,64%)" stroke-width="1" x1="250.0" x2="218.75" y1="156.25" y2="187.5" /><circle cx="250.0" cy="187.5" fill="rgb(0%,76%,100%)" r="1" /><circle cx="0.0" cy="125.0" fill="rgb(0%,76%,100%)" r="1" /><line stroke="rgb(64%,64%,64%)" stroke-width="1" x1="31.25" x2="-0.0" y1="125.0" y2="156.25" /><circle cx="31.25" cy="156.25" fill="rgb(100%,0%,0%)" r="1" /><line stroke="rgb(64%,64%,64%)" stroke-width="1" x1="62.5" x2="62.5" y1="156.25" y2="156.25" /><circle cx="93.75" cy="156.25" fill="rgb(100%,0%,0%)" r="1" /><line stroke="rgb(64%,64%,64%)" stroke-width="1" x1="31.25" x2="62.5" y1="125.0" y2="156.25" /><circle cx="62.5" cy="125.0" fill="rgb(0%,76%,100%)" r="1" /><line stroke="rgb(64%,64%,64%)" stroke-width="1" x1="93.75" x2="62.5" y1="125.0" y2="156.25" /><circle cx="93.75" cy="156.25" fill="rgb(100%,0%,0%)" r="1" /><line stroke="rgb(64%,64%,64%)" stroke-width="1" x1="125.0" x2="125.0" y1="156.25" y2="156.25" /><circle cx="156.25" cy="156.25" fill="rgb(100%,0%,0%)" r="1" /><line stroke="rgb(64%,64%,64%)" stroke-width="1" x1="93.75" x2="125.0" y1="125.0" y2="156.25" /><circle cx="125.0" cy="125.0" fill="rgb(0%,76%,100%)" r="1" /><line stroke="rgb(64%,64%,64%)" stroke-width="1" x1="156.25" x2="125.0" y1="125.0" y2="156.25" /><circle cx="156.25" cy="156.25" fill="rgb(100%,0%,0%)" r="1" /><line stroke="rgb(64%,64%,64%)" stroke-width="1" x1="187.5" x2="187.5" y1="156.25" y2="156.25" /><circle cx="218.75" cy="156.25" fill="rgb(100%,0%,0%)" r="1" /><line stroke="rgb(64%,64%,64%)" stroke-width="1" x1="156.25" x2="187.5" y1="125.0" y2="156.25" /><circle cx="187.5" cy="125.0" fill="rgb(0%,76%,100%)" r="1" /><line stroke="rgb(64%,64%,64%)" stroke-width="1" x1="218.75" x2="187.5" y1="125.0" y2="156.25" /><circle cx="218.75" cy="156.25" fill="rgb(100%,0%,0%)" r="1" /><line stroke="rgb(64%,64%,64%)" stroke-width="1" x1="31.25" x2="31.25" y1="125.0" y2="125.0" /><circle cx="62.5" cy="125.0" fill="rgb(0%,76%,100%)" r="1" /><line stroke="rgb(64%,64%,64%)" stroke-width="1" x1="-0.0" x2="31.25" y1="93.75" y2="125.0" /><circle cx="31.25" cy="93.75" fill="rgb(100%,0%,0%)" r="1" /><line stroke="rgb(64%,64%,64%)" stroke-width="1" x1="62.5" x2="31.25" y1="93.75" y2="125.0" /><circle cx="62.5" cy="125.0" fill="rgb(0%,76%,100%)" r="1" /><line stroke="rgb(64%,64%,64%)" stroke-width="1" x1="93.75" x2="93.75" y1="125.0" y2="125.0" /><circle cx="125.0" cy="125.0" fill="rgb(0%,76%,100%)" r="1" /><line stroke="rgb(64%,64%,64%)" stroke-width="1" x1="62.5" x2="93.75" y1="93.75" y2="125.0" /><circle cx="93.75" cy="93.75" fill="rgb(100%,0%,0%)" r="1" /><line stroke="rgb(64%,64%,64%)" stroke-width="1" x1="125.0" x2="93.75" y1="93.75" y2="125.0" /><circle cx="125.0" cy="125.0" fill="rgb(0%,76%,100%)" r="1" /><line stroke="rgb(64%,64%,64%)" stroke-width="1" x1="156.25" x2="156.25" y1="125.0" y2="125.0" /><circle cx="187.5" cy="125.0" fill="rgb(0%,76%,100%)" r="1" /><line stroke="rgb(64%,64%,64%)" stroke-width="1" x1="125.0" x2="156.25" y1="93.75" y2="125.0" /><circle cx="156.25" cy="93.75" fill="rgb(100%,0%,0%)" r="1" /><line stroke="rgb(64%,64%,64%)" stroke-width="1" x1="187.5" x2="156.25" y1="93.75" y2="125.0" /><circle cx="187.5" cy="125.0" fill="rgb(0%,76%,100%)" r="1" /><line stroke="rgb(64%,64%,64%)" stroke-width="1" x1="187.5" x2="218.75" y1="93.75" y2="125.0" /><circle cx="218.75" cy="93.75" fill="rgb(100%,0%,0%)" r="1" /><line stroke="rgb(64%,64%,64%)" stroke-width="1" x1="250.0" x2="218.75" y1="125.0" y2="125.0" /><circle cx="218.75" cy="156.25" fill="rgb(100%,0%,0%)" r="1" /><line stroke="rgb(64%,64%,64%)" stroke-width="1" x1="62.5" x2="62.5" y1="93.75" y2="93.75" /><circle cx="93.75" cy="93.75" fill="rgb(100%,0%,0%)" r="1" /><line stroke="rgb(64%,64%,64%)" stroke-width="1" x1="31.25" x2="62.5" y1="62.5" y2="93.75" /><circle cx="62.5" cy="62.5" fill="rgb(0%,76%,100%)" r="1" /><line stroke="rgb(64%,64%,64%)" stroke-width="1" x1="93.75" x2="62.5" y1="62.5" y2="93.75" /><circle cx="93.75" cy="93.75" fill="rgb(100%,0%,0%)" r="1" /><line stroke="rgb(64%,64%,64%)" stroke-width="1" x1="125.0" x2="125.0" y1="93.75" y2="93.75" /><circle cx="156.25" cy="93.75" fill="rgb(100%,0%,0%)" r="1" /><line stroke="rgb(64%,64%,64%)" stroke-width="1" x1="93.75" x2="125.0" y1="62.5" y2="93.75" /><circle cx="125.0" cy="62.5" fill="rgb(0%,76%,100%)" r="1" /><line stroke="rgb(64%,64%,64%)" stroke-width="1" x1="156.25" x2="125.0" y1="62.5" y2="93.75" /><circle cx="156.25" cy="93.75" fill="rgb(100%,0%,0%)" r="1" /><line stroke="rgb(64%,64%,64%)" stroke-width="1" x1="187.5" x2="187.5" y1="93.75" y2="93.75" /><circle cx="218.75" cy="93.75" fill="rgb(100%,0%,0%)" r="1" /><line stroke="rgb(64%,64%,64%)" stroke-width="1" x1="156.25" x2="187.5" y1="62.5" y2="93.75" /><circle cx="187.5" cy="62.5" fill="rgb(0%,76%,100%)" r="1" /><line stroke="rgb(64%,64%,64%)" stroke-width="1" x1="218.75" x2="187.5" y1="62.5" y2="93.75" /><circle cx="218.75" cy="93.75" fill="rgb(100%,0%,0%)" r="1" /><circle cx="250.0" cy="187.5" fill="rgb(0%,76%,100%)" r="1" /><line stroke="rgb(64%,64%,64%)" stroke-width="1" x1="0.0" x2="31.25" y1="62.5" y2="62.5" /><circle cx="31.25" cy="31.25" fill="rgb(100%,0%,0%)" r="1" /><line stroke="rgb(64%,64%,64%)" stroke-width="1" x1="62.5" x2="31.25" y1="31.25" y2="62.5" /><circle cx="62.5" cy="62.5" fill="rgb(0%,76%,100%)" r="1" /><line stroke="rgb(64%,64%,64%)" stroke-width="1" x1="93.75" x2="93.75" y1="62.5" y2="62.5" /><circle cx="125.0" cy="62.5" fill="rgb(0%,76%,100%)" r="1" /><line stroke="rgb(64%,64%,64%)" stroke-width="1" x1="62.5" x2="93.75" y1="31.25" y2="62.5" /><circle cx="93.75" cy="31.25" fill="rgb(100%,0%,0%)" r="1" /><line stroke="rgb(64%,64%,64%)" stroke-width="1" x1="125.0" x2="93.75" y1="31.25" y2="62.5" /><circle cx="125.0" cy="62.5" fill="rgb(0%,76%,100%)" r="1" /><line stroke="rgb(64%,64%,64%)" stroke-width="1" x1="156.25" x2="156.25" y1="62.5" y2="62.5" /><circle cx="187.5" cy="62.5" fill="rgb(0%,76%,100%)" r="1" /><line stroke="rgb(64%,64%,64%)" stroke-width="1" x1="125.0" x2="156.25" y1="31.25" y2="62.5" /><circle cx="156.25" cy="31.25" fill="rgb(100%,0%,0%)" r="1" /><line stroke="rgb(64%,64%,64%)" stroke-width="1" x1="187.5" x2="156.25" y1="31.25" y2="62.5" /><circle cx="187.5" cy="62.5" fill="rgb(0%,76%,100%)" r="1" /><line stroke="rgb(64%,64%,64%)" stroke-width="1" x1="187.5" x2="218.75" y1="31.25" y2="62.5" /><circle cx="218.75" cy="31.25" fill="rgb(100%,0%,0%)" r="1" /><line stroke="rgb(64%,64%,64%)" stroke-width="1" x1="250.0" x2="218.75" y1="62.5" y2="62.5" /><circle cx="218.75" cy="93.75" fill="rgb(100%,0%,0%)" r="1" /><line stroke="rgb(64%,64%,64%)" stroke-width="1" x1="62.5" x2="62.5" y1="0.0" y2="31.25" /><circle cx="93.75" cy="31.25" fill="rgb(100%,0%,0%)" r="1" /><line stroke="rgb(64%,64%,64%)" stroke-width="1" x1="125.0" x2="125.0" y1="0.0" y2="31.25" /><circle cx="156.25" cy="31.25" fill="rgb(100%,0%,0%)" r="1" /><line stroke="rgb(64%,64%,64%)" stroke-width="1" x1="187.5" x2="187.5" y1="0.0" y2="31.25" /><circle cx="218.75" cy="31.25" fill="rgb(100%,0%,0%)" r="1" /><circle cx="31.25" cy="31.25" fill="rgb(100%,0%,0%)" r="1" /><circle cx="250.0" cy="187.5" fill="rgb(0%,76%,100%)" r="1" /><line stroke="rgb(64%,64%,64%)" stroke-width="1" x1="-0.0" x2="0" y1="218.75" y2="250" /><circle cx="31.25" cy="218.75" fill="rgb(100%,0%,0%)" r="1" /><line stroke="rgb(64%,64%,64%)" stroke-width="1" x1="0" x2="31.25" y1="250" y2="250.0" /><circle cx="31.25" cy="218.75" fill="rgb(100%,0%,0%)" r="1" /><line stroke="rgb(64%,64%,64%)" stroke-width="1" x1="31.25" x2="93.75" y1="250.0" y2="250.0" /><circle cx="62.5" cy="250.0" fill="rgb(0%,76%,100%)" r="1" /><line stroke="rgb(64%,64%,64%)" stroke-width="1" x1="93.75" x2="93.75" y1="250.0" y2="250.0" /><circle cx="93.75" cy="218.75" fill="rgb(100%,0%,0%)" r="1" /><line stroke="rgb(64%,64%,64%)" stroke-width="1" x1="93.75" x2="156.25" y1="250.0" y2="250.0" /><circle cx="125.0" cy="250.0" fill="rgb(0%,76%,100%)" r="1" /><line stroke="rgb(64%,64%,64%)" stroke-width="1" x1="156.25" x2="156.25" y1="250.0" y2="250.0" /><circle cx="156.25" cy="218.75" fill="rgb(100%,0%,0%)" r="1" /><line stroke="rgb(64%,64%,64%)" stroke-width="1" x1="156.25" x2="218.75" y1="250.0" y2="250.0" /><circle cx="187.5" cy="250.0" fill="rgb(0%,76%,100%)" r="1" /><line stroke="rgb(64%,64%,64%)" stroke-width="1" x1="218.75" x2="250" y1="250.0" y2="250" /><circle cx="218.75" cy="218.75" fill="rgb(100%,0%,0%)" r="1" /><line stroke="rgb(64%,64%,64%)" stroke-width="1" x1="250" x2="250.0" y1="250" y2="218.75" /><circle cx="218.75" cy="218.75" fill="rgb(100%,0%,0%)" r="1" /><line stroke="rgb(64%,64%,64%)" stroke-width="1" x1="250.0" x2="250.0" y1="218.75" y2="156.25" /><circle cx="250.0" cy="187.5" fill="rgb(0%,76%,100%)" r="1" /><line stroke="rgb(64%,64%,64%)" stroke-width="1" x1="250.0" x2="250.0" y1="156.25" y2="125.0" /><circle cx="218.75" cy="156.25" fill="rgb(100%,0%,0%)" r="1" /><line stroke="rgb(64%,64%,64%)" stroke-width="1" x1="250.0" x2="250.0" y1="125.0" y2="62.5" /><circle cx="218.75" cy="93.75" fill="rgb(100%,0%,0%)" r="1" /><line stroke="rgb(64%,64%,64%)" stroke-width="1" x1="250.0" x2="250" y1="62.5" y2="0" /><circle cx="218.75" cy="31.25" fill="rgb(100%,0%,0%)" r="1" /><line stroke="rgb(64%,64%,64%)" stroke-width="1" x1="250" x2="187.5" y1="0" y2="0.0" /><circle cx="218.75" cy="31.25" fill="rgb(100%,0%,0%)" r="1" /><line stroke="rgb(64%,64%,64%)" stroke-width="1" x1="187.5" x2="125.0" y1="0.0" y2="0.0" /><circle cx="156.25" cy="31.25" fill="rgb(100%,0%,0%)" r="1" /><line stroke="rgb(64%,64%,64%)" stroke-width="1" x1="125.0" x2="62.5" y1="0.0" y2="0.0" /><circle cx="93.75" cy="31.25" fill="rgb(100%,0%,0%)" r="1" /><line stroke="rgb(64%,64%,64%)" stroke-width="1" x1="62.5" x2="0" y1="0.0" y2="0" /><circle cx="31.25" cy="31.25" fill="rgb(100%,0%,0%)" r="1" /><line stroke="rgb(64%,64%,64%)" stroke-width="1" x1="0" x2="0.0" y1="0" y2="62.5" /><circle cx="31.25" cy="31.25" fill="rgb(100%,0%,0%)" r="1" /><line stroke="rgb(64%,64%,64%)" stroke-width="1" x1="0.0" x2="-0.0" y1="62.5" y2="93.75" /><circle cx="31.25" cy="93.75" fill="rgb(100%,0%,0%)" r="1" /><line stroke="rgb(64%,64%,64%)" stroke-width="1" x1="-0.0" x2="-0.0" y1="93.75" y2="218.75" /><circle cx="0.0" cy="125.0" fill="rgb(0%,76%,100%)" r="1" /><line stroke="rgb(0%,0%,0%)" stroke-width="2" x1="0" x2="250" y1="0" y2="0" /><line stroke="rgb(0%,0%,0%)" stroke-width="2" x1="0" x2="250" y1="250" y2="250" /><line stroke="rgb(0%,0%,0%)" stroke-width="2" x1="0" x2="0" y1="0" y2="250" /><line stroke="rgb(0%,0%,0%)" stroke-width="2" x1="250" x2="250" y1="0" y2="250" /></svg>