<?xml version="1.0" encoding="utf-8" ?>
<svg baseProfile="tiny" height="250" version="1.2" width="250" xmlns="http://www.w3.org/2000/svg" xmlns:ev="http://www.w3.org/2001/xml-events" xmlns:xlink="http://www.w3.org/1999/xlink"><defs /><line stroke="rgb(64%,64%,64%)" stroke-width="1" x1="76.719" x2="191.8823" y1="188.7755" y2="146.4382" /><circle cx="142.8615" cy="159.5268" fill="rgb(100%,0%,0%)" r="1" /><line stroke="rgb(64%,64%,64%)" stroke-width="1" x1="100.4179" x2="100.4179" y1="250" y2="250" /><circle cx="11.1497" cy="158.2632" fill="rgb(100%,0%,0%)" r="1" /><line stroke="rgb(64%,64%,64%)" stroke-width="1" x1="76.719" x2="127.8388" y1="188.7755" y2="111.0925" /><circle cx="77.4128" cy="116.4579" fill="rgb(0%,76%,100%)" r="1" /><line stroke="rgb(64%,64%,64%)" stroke-width="1" x1="25.8684" x2="76.719" y1="108.1754" y2="188.7755" /><circle cx="77.4128" cy="116.4579" fill="rgb(0%,76%,100%)" r="1" /><line stroke="rgb(64%,64%,64%)" stroke-width="1" x1="191.8823" x2="250" y1="146.4382" y2="145.3674" /><circle cx="212.7724" cy="100.2002" fill="rgb(0%,76%,100%)" r="1" /><line stroke="rgb(64%,64%,64%)" stroke-width="1" x1="173.7469" x2="191.8823" y1="125.0673" y2="146.4382" /><circle cx="212.7724" cy="100.2002" fill="rgb(0%,76%,100%)" r="1" /><line stroke="rgb(64%,64%,64%)" stroke-width="1" x1="127.8388" x2="173.7469" y1="111.0925" y2="125.0673" /><circle cx="167.3005" cy="79.2437" fill="rgb(0%,76%,100%)" r="1" /><line stroke="rgb(64%,64%,64%)" stroke-width="1" x1="206.3259" x2="173.7469" y1="54.3765" y2="125.0673" /><circle cx="212.7724" cy="100.2002" fill="rgb(0%,76%,100%)" r="1" /><line stroke="rgb(64%,64%,64%)" stroke-width="1" x1="0" x2="25.8684" y1="111.1977" y2="108.1754" /><circle cx="0" cy="62.8296" fill="rgb(0%,76%,100%)" r="1" /><line stroke="rgb(64%,64%,64%)" stroke-width="1" x1="116.8745" x2="127.8388" y1="84.6091" y2="111.0925" /><circle cx="167.3005" cy="79.2437" fill="rgb(0%,76%,100%)" r="1" /><line stroke="rgb(64%,64%,64%)" stroke-width="1" x1="51.5444" x2="25.8684" y1="71.112" y2="108.1754" /><circle cx="77.4128" cy="116.4579" fill="rgb(0%,76%,100%)" r="1" /><line stroke="rgb(64%,64%,64%)" stroke-width="1" x1="51.5444" x2="116.8745" y1="71.112" y2="84.6091" /><circle cx="93.2647" cy="39.7298" fill="rgb(100%,0%,0%)" r="1" /><line stroke="rgb(64%,64%,64%)" stroke-width="1" x1="151.643" x2="116.8745" y1="19.4644" y2="84.6091" /><circle cx="167.3005" cy="79.2437" fill="rgb(0%,76%,100%)" r="1" /><line stroke="rgb(64%,64%,64%)" stroke-width="1" x1="33.9314" x2="51.5444" y1="0" y2="71.112" /><circle cx="93.2647" cy="39.7298" fill="rgb(100%,0%,0%)" r="1" /><line stroke="rgb(64%,64%,64%)" stroke-width="1" x1="206.3259" x2="250" y1="54.3765" y2="54.2278" /><circle cx="212.4601" cy="8.51" fill="rgb(100%,0%,0%)" r="1" /><line stroke="rgb(64%,64%,64%)" stroke-width="1" x1="151.643" x2="206.3259" y1="19.4644" y2="54.3765" /><circle cx="212.4601" cy="8.51" fill="rgb(100%,0%,0%)" r="1" /><line stroke="rgb(64%,64%,64%)" stroke-width="1" x1="146.5449" x2="151.643" y1="0" y2="19.4644" /><circle cx="212.4601" cy="8.51" fill="rgb(100%,0%,0%)" r="1" /><line stroke="rgb(64%,64%,64%)" stroke-width="1" x1="0" x2="100.4179" y1="250" y2="250" /><circle cx="214.4616" cy="191.8753" fill="rgb(100%,0%,0%)" r="1" /><line stroke="rgb(64%,64%,64%)" stroke-width="1" x1="100.4179" x2="100.4179" y1="250" y2="250" /><circle cx="214.4616" cy="191.8753" fill="rgb(100%,0%,0%)" r="1" /><line stroke="rgb(64%,64%,64%)" stroke-width="1" x1="100.4179" x2="250" y1="250" y2="250" /><circle cx="11.1497" cy="158.2632" fill="rgb(100%,0%,0%)" r="1" /><line stroke="rgb(64%,64%,64%)" stroke-width="1" x1="250" x2="250" y1="250" y2="145.3674" /><circle cx="11.1497" cy="158.2632" fill="rgb(100%,0%,0%)" r="1" /><line stroke="rgb(64%,64%,64%)" stroke-width="1" x1="250" x2="250" y1="145.3674" y2="54.2278" /><circle cx="212.7724" cy="100.2002" fill="rgb(0%,76%,100%)" r="1" /><line stroke="rgb(64%,64%,64%)" stroke-width="1" x1="250" x2="250" y1="54.2278" y2="0" /><circle cx="212.4601" cy="8.51" fill="rgb(100%,0%,0%)" r="1" /><line stroke="rgb(64%,64%,64%)" stroke-width="1" x1="250" x2="146.5449" y1="0" y2="0" /><circle cx="212.4601" cy="8.51" fill="rgb(100%,0%,0%)" r="1" /><line stroke="rgb(64%,64%,64%)" stroke-width="1" x1="146.5449" x2="33.9314" y1="0" y2="0" /><circle cx="93.2647" cy="39.7298" fill="rgb(100%,0%,0%)" r="1" /><line stroke="rgb(64%,64%,64%)" stroke-width="1" x1="33.9314" x2="0" y1="0" y2="0" /><circle cx="0" cy="62.8296" fill="rgb(0%,76%,100%)" r="1" /><line stroke="rgb(64%,64%,64%)" stroke-width="1" x1="0" x2="0" y1="0" y2="111.1977" /><circle cx="0" cy="62.8296" fill="rgb(0%,76%,100%)" r="1" /><line stroke="rgb(64%,64%,64%)" stroke-width="1" x1="0" x2="0" y1="111.1977" y2="250" /><circle cx="11.1497" cy="158.2632" fill="rgb(100%,0%,0%)" r="1" /><line stroke="rgb(0%,0%,0%)" stroke-width="2" x1="0" x2="250" y1="0" y2="0" /><line stroke="rgb(0%,0%,0%)" stroke-width="2" x1="0" x2="250" y1="250" y2="250" /><line stroke="rgb(0%,0%,0%)" stroke-width="2" x1="0" x2="0" y1="0" y2="250" /><line stroke="rgb(0%,0%,0%)" stroke-width="2" x1="250" x2="250" y1="0" y2="250" /></svg>