<?xml version="1.0" encoding="utf-8" ?>
<svg baseProfile="tiny" height="250" version="1.2" width="250" xmlns="http://www.w3.org/2000/svg" xmlns:ev="http://www.w3.org/2001/xml-events" xmlns:xlink="http://www.w3.org/1999/xlink"><defs /><line stroke="rgb(64%,64%,64%)" stroke-width="1" x1="43.0473" x2="43.8296" y1="250" y2="232.4997" /><circle cx="21.8056" cy="244.5102" fill="rgb(0%,76%,100%)" r="1" /><line stroke="rgb(64%,64%,64%)" stroke-width="1" x1="83.9106" x2="86.7287" y1="193.8066" y2="250" /><circle cx="145.8078" cy="242.3634" fill="rgb(0%,76%,100%)" r="1" /><line stroke="rgb(64%,64%,64%)" stroke-width="1" x1="66.1244" x2="80.2075" y1="220.3982" y2="250" /><circle cx="87.2225" cy="235.7095" fill="rgb(100%,0%,0%)" r="1" /><line stroke="rgb(64%,64%,64%)" stroke-width="1" x1="181.5508" x2="183.7364" y1="238.668" y2="250" /><circle cx="216.1044" cy="228.8053" fill="rgb(0%,76%,100%)" r="1" /><line stroke="rgb(64%,64%,64%)" stroke-width="1" x1="116.2145" x2="137.7853" y1="250" y2="223.0766" /><circle cx="117.2131" cy="219.4536" fill="rgb(100%,0%,0%)" r="1" /><line stroke="rgb(64%,64%,64%)" stroke-width="1" x1="137.7853" x2="181.5508" y1="223.0766" y2="238.668" /><circle cx="156.195" cy="213.2062" fill="rgb(0%,76%,100%)" r="1" /><line stroke="rgb(64%,64%,64%)" stroke-width="1" x1="0" x2="43.8296" y1="206.8444" y2="232.4997" /><circle cx="43.5186" cy="207.4157" fill="rgb(0%,76%,100%)" r="1" /><line stroke="rgb(64%,64%,64%)" stroke-width="1" x1="66.1244" x2="43.8296" y1="220.3982" y2="232.4997" /><circle cx="64.6941" cy="246.4274" fill="rgb(0%,76%,100%)" r="1" /><line stroke="rgb(64%,64%,64%)" stroke-width="1" x1="191.1515" x2="181.5508" y1="201.7957" y2="238.668" /><circle cx="216.1044" cy="228.8053" fill="rgb(0%,76%,100%)" r="1" /><line stroke="rgb(64%,64%,64%)" stroke-width="1" x1="129.7164" x2="137.7853" y1="172.7286" y2="223.0766" /><circle cx="156.195" cy="213.2062" fill="rgb(0%,76%,100%)" r="1" /><line stroke="rgb(64%,64%,64%)" stroke-width="1" x1="82.9684" x2="66.1244" y1="194.3802" y2="220.3982" /><circle cx="87.2225" cy="235.7095" fill="rgb(100%,0%,0%)" r="1" /><line stroke="rgb(64%,64%,64%)" stroke-width="1" x1="195.5882" x2="240.5169" y1="200.3199" y2="201.1432" /><circle cx="217.1343" cy="172.6054" fill="rgb(0%,76%,100%)" r="1" /><line stroke="rgb(64%,64%,64%)" stroke-width="1" x1="0" x2="82.9684" y1="189.6531" y2="194.3802" /><circle cx="48.2086" cy="171.6214" fill="rgb(100%,0%,0%)" r="1" /><line stroke="rgb(64%,64%,64%)" stroke-width="1" x1="191.1515" x2="195.5882" y1="201.7957" y2="200.3199" /><circle cx="194.9536" cy="165.2211" fill="rgb(100%,0%,0%)" r="1" /><line stroke="rgb(64%,64%,64%)" stroke-width="1" x1="212.8182" x2="195.5882" y1="148.5648" y2="200.3199" /><circle cx="217.1343" cy="172.6054" fill="rgb(0%,76%,100%)" r="1" /><line stroke="rgb(64%,64%,64%)" stroke-width="1" x1="145.5002" x2="191.1515" y1="164.9222" y2="201.7957" /><circle cx="194.9536" cy="165.2211" fill="rgb(100%,0%,0%)" r="1" /><line stroke="rgb(64%,64%,64%)" stroke-width="1" x1="240.5169" x2="250" y1="201.1432" y2="205.6888" /><circle cx="246.7904" cy="164.7867" fill="rgb(0%,76%,100%)" r="1" /><line stroke="rgb(64%,64%,64%)" stroke-width="1" x1="230.1752" x2="240.5169" y1="161.9175" y2="201.1432" /><circle cx="246.7904" cy="164.7867" fill="rgb(0%,76%,100%)" r="1" /><line stroke="rgb(64%,64%,64%)" stroke-width="1" x1="83.9106" x2="82.9684" y1="193.8066" y2="194.3802" /><circle cx="87.2225" cy="235.7095" fill="rgb(100%,0%,0%)" r="1" /><line stroke="rgb(64%,64%,64%)" stroke-width="1" x1="97.6558" x2="83.9106" y1="173.9773" y2="193.8066" /><circle cx="117.2131" cy="219.4536" fill="rgb(100%,0%,0%)" r="1" /><line stroke="rgb(64%,64%,64%)" stroke-width="1" x1="0" x2="77.9136" y1="180.5838" y2="144.9617" /><circle cx="38.3171" cy="149.9866" fill="rgb(100%,0%,0%)" r="1" /><line stroke="rgb(64%,64%,64%)" stroke-width="1" x1="230.1752" x2="250" y1="161.9175" y2="151.4377" /><circle cx="237.1617" cy="146.5719" fill="rgb(100%,0%,0%)" r="1" /><line stroke="rgb(64%,64%,64%)" stroke-width="1" x1="212.8182" x2="230.1752" y1="148.5648" y2="161.9175" /><circle cx="237.1617" cy="146.5719" fill="rgb(100%,0%,0%)" r="1" /><line stroke="rgb(64%,64%,64%)" stroke-width="1" x1="97.6558" x2="129.7164" y1="173.9773" y2="172.7286" /><circle cx="113.6169" cy="127.1177" fill="rgb(100%,0%,0%)" r="1" /><line stroke="rgb(64%,64%,64%)" stroke-width="1" x1="77.9136" x2="97.6558" y1="144.9617" y2="173.9773" /><circle cx="113.6169" cy="127.1177" fill="rgb(100%,0%,0%)" r="1" /><line stroke="rgb(64%,64%,64%)" stroke-width="1" x1="145.5002" x2="129.7164" y1="164.9222" y2="172.7286" /><circle cx="156.195" cy="213.2062" fill="rgb(0%,76%,100%)" r="1" /><line stroke="rgb(64%,64%,64%)" stroke-width="1" x1="199.0557" x2="212.8182" y1="117.4165" y2="148.5648" /><circle cx="237.1617" cy="146.5719" fill="rgb(100%,0%,0%)" r="1" /><line stroke="rgb(64%,64%,64%)" stroke-width="1" x1="0" x2="45.4309" y1="159.9042" y2="114.0709" /><circle cx="9.5793" cy="121.5011" fill="rgb(0%,76%,100%)" r="1" /><line stroke="rgb(64%,64%,64%)" stroke-width="1" x1="81.3249" x2="155.3082" y1="104.7425" y2="143.9857" /><circle cx="117.9605" cy="118.9288" fill="rgb(100%,0%,0%)" r="1" /><line stroke="rgb(64%,64%,64%)" stroke-width="1" x1="155.3082" x2="145.5002" y1="143.9857" y2="164.9222" /><circle cx="194.9536" cy="165.2211" fill="rgb(100%,0%,0%)" r="1" /><line stroke="rgb(64%,64%,64%)" stroke-width="1" x1="84.1653" x2="158.5245" y1="85.2665" y2="138.6363" /><circle cx="126.8723" cy="106.5122" fill="rgb(100%,0%,0%)" r="1" /><line stroke="rgb(64%,64%,64%)" stroke-width="1" x1="69.9966" x2="77.9136" y1="118.8937" y2="144.9617" /><circle cx="113.6169" cy="127.1177" fill="rgb(100%,0%,0%)" r="1" /><line stroke="rgb(64%,64%,64%)" stroke-width="1" x1="158.5245" x2="155.3082" y1="138.6363" y2="143.9857" /><circle cx="194.9536" cy="165.2211" fill="rgb(100%,0%,0%)" r="1" /><line stroke="rgb(64%,64%,64%)" stroke-width="1" x1="178.8003" x2="158.5245" y1="115.1237" y2="138.6363" /><circle cx="194.9536" cy="165.2211" fill="rgb(100%,0%,0%)" r="1" /><line stroke="rgb(64%,64%,64%)" stroke-width="1" x1="45.4309" x2="69.9966" y1="114.0709" y2="118.8937" /><circle cx="52.4239" cy="78.1314" fill="rgb(100%,0%,0%)" r="1" /><line stroke="rgb(64%,64%,64%)" stroke-width="1" x1="31.8655" x2="45.4309" y1="100.6697" y2="114.0709" /><circle cx="52.4239" cy="78.1314" fill="rgb(100%,0%,0%)" r="1" /><line stroke="rgb(64%,64%,64%)" stroke-width="1" x1="81.3249" x2="69.9966" y1="104.7425" y2="118.8937" /><circle cx="113.6169" cy="127.1177" fill="rgb(100%,0%,0%)" r="1" /><line stroke="rgb(64%,64%,64%)" stroke-width="1" x1="222.1313" x2="250" y1="107.9769" y2="108.9995" /><circle cx="239.95" cy="70.5872" fill="rgb(100%,0%,0%)" r="1" /><line stroke="rgb(64%,64%,64%)" stroke-width="1" x1="63.6105" x2="31.8655" y1="113.5004" y2="100.6697" /><circle cx="30.3129" cy="70.2031" fill="rgb(100%,0%,0%)" r="1" /><line stroke="rgb(64%,64%,64%)" stroke-width="1" x1="63.6105" x2="31.8655" y1="113.5004" y2="100.6697" /><circle cx="52.4239" cy="78.1314" fill="rgb(100%,0%,0%)" r="1" /><line stroke="rgb(64%,64%,64%)" stroke-width="1" x1="199.0557" x2="222.1313" y1="117.4165" y2="107.9769" /><circle cx="205.8025" cy="69.913" fill="rgb(100%,0%,0%)" r="1" /><line stroke="rgb(64%,64%,64%)" stroke-width="1" x1="178.8425" x2="199.0557" y1="115.1156" y2="117.4165" /><circle cx="205.8025" cy="69.913" fill="rgb(100%,0%,0%)" r="1" /><line stroke="rgb(64%,64%,64%)" stroke-width="1" x1="223.3915" x2="222.1313" y1="44.1578" y2="107.9769" /><circle cx="239.95" cy="70.5872" fill="rgb(100%,0%,0%)" r="1" /><line stroke="rgb(64%,64%,64%)" stroke-width="1" x1="0" x2="81.3249" y1="235.3824" y2="104.7425" /><circle cx="117.9605" cy="118.9288" fill="rgb(100%,0%,0%)" r="1" /><line stroke="rgb(64%,64%,64%)" stroke-width="1" x1="140.1409" x2="178.8003" y1="72.5421" y2="115.1237" /><circle cx="175.2311" cy="62.6077" fill="rgb(100%,0%,0%)" r="1" /><line stroke="rgb(64%,64%,64%)" stroke-width="1" x1="178.8425" x2="178.8003" y1="115.1156" y2="115.1237" /><circle cx="194.9536" cy="165.2211" fill="rgb(100%,0%,0%)" r="1" /><line stroke="rgb(64%,64%,64%)" stroke-width="1" x1="186.0951" x2="178.8425" y1="84.7646" y2="115.1156" /><circle cx="205.8025" cy="69.913" fill="rgb(100%,0%,0%)" r="1" /><line stroke="rgb(64%,64%,64%)" stroke-width="1" x1="186.0951" x2="216.4086" y1="84.7646" y2="39.613" /><circle cx="192.3798" cy="60.9013" fill="rgb(100%,0%,0%)" r="1" /><line stroke="rgb(64%,64%,64%)" stroke-width="1" x1="181.5833" x2="186.0951" y1="39.4231" y2="84.7646" /><circle cx="192.3798" cy="60.9013" fill="rgb(100%,0%,0%)" r="1" /><line stroke="rgb(64%,64%,64%)" stroke-width="1" x1="63.4528" x2="63.6105" y1="106.8559" y2="113.5004" /><circle cx="117.9605" cy="118.9288" fill="rgb(100%,0%,0%)" r="1" /><line stroke="rgb(64%,64%,64%)" stroke-width="1" x1="0" x2="63.4528" y1="70.2745" y2="106.8559" /><circle cx="49.1313" cy="52.8954" fill="rgb(0%,76%,100%)" r="1" /><line stroke="rgb(64%,64%,64%)" stroke-width="1" x1="84.1653" x2="63.4528" y1="85.2665" y2="106.8559" /><circle cx="117.9605" cy="118.9288" fill="rgb(100%,0%,0%)" r="1" /><line stroke="rgb(64%,64%,64%)" stroke-width="1" x1="140.1409" x2="180.9361" y1="72.5421" y2="39.2862" /><circle cx="156.9434" cy="40.1741" fill="rgb(0%,76%,100%)" r="1" /><line stroke="rgb(64%,64%,64%)" stroke-width="1" x1="92.5342" x2="84.1653" y1="73.1321" y2="85.2665" /><circle cx="126.8723" cy="106.5122" fill="rgb(100%,0%,0%)" r="1" /><line stroke="rgb(64%,64%,64%)" stroke-width="1" x1="127.0916" x2="140.1409" y1="66.6269" y2="72.5421" /><circle cx="156.9434" cy="40.1741" fill="rgb(0%,76%,100%)" r="1" /><line stroke="rgb(64%,64%,64%)" stroke-width="1" x1="92.5342" x2="127.0916" y1="73.1321" y2="66.6269" /><circle cx="112.385" cy="29.5513" fill="rgb(100%,0%,0%)" r="1" /><line stroke="rgb(64%,64%,64%)" stroke-width="1" x1="142.9755" x2="127.0916" y1="0" y2="66.6269" /><circle cx="156.9434" cy="40.1741" fill="rgb(0%,76%,100%)" r="1" /><line stroke="rgb(64%,64%,64%)" stroke-width="1" x1="80.0475" x2="92.5342" y1="39.2979" y2="73.1321" /><circle cx="112.385" cy="29.5513" fill="rgb(100%,0%,0%)" r="1" /><line stroke="rgb(64%,64%,64%)" stroke-width="1" x1="0" x2="61.2703" y1="66.0799" y2="21.9754" /><circle cx="28.0962" cy="23.6733" fill="rgb(0%,76%,100%)" r="1" /><line stroke="rgb(64%,64%,64%)" stroke-width="1" x1="223.3915" x2="250" y1="44.1578" y2="44.092" /><circle cx="239.8193" cy="17.6468" fill="rgb(0%,76%,100%)" r="1" /><line stroke="rgb(64%,64%,64%)" stroke-width="1" x1="181.5833" x2="211.8355" y1="39.4231" y2="34.5975" /><circle cx="185.1619" cy="15.6519" fill="rgb(0%,76%,100%)" r="1" /><line stroke="rgb(64%,64%,64%)" stroke-width="1" x1="180.9361" x2="181.5833" y1="39.2862" y2="39.4231" /><circle cx="185.1619" cy="15.6519" fill="rgb(0%,76%,100%)" r="1" /><line stroke="rgb(64%,64%,64%)" stroke-width="1" x1="183.1863" x2="180.9361" y1="0" y2="39.2862" /><circle cx="185.1619" cy="15.6519" fill="rgb(0%,76%,100%)" r="1" /><line stroke="rgb(64%,64%,64%)" stroke-width="1" x1="216.4086" x2="223.3915" y1="39.613" y2="44.1578" /><circle cx="239.8193" cy="17.6468" fill="rgb(0%,76%,100%)" r="1" /><line stroke="rgb(64%,64%,64%)" stroke-width="1" x1="211.8355" x2="216.4086" y1="34.5975" y2="39.613" /><circle cx="239.8193" cy="17.6468" fill="rgb(0%,76%,100%)" r="1" /><line stroke="rgb(64%,64%,64%)" stroke-width="1" x1="80.0475" x2="120.993" y1="39.2979" y2="0" /><circle cx="91.1132" cy="7.3878" fill="rgb(0%,76%,100%)" r="1" /><line stroke="rgb(64%,64%,64%)" stroke-width="1" x1="61.2703" x2="80.0475" y1="21.9754" y2="39.2979" /><circle cx="91.1132" cy="7.3878" fill="rgb(0%,76%,100%)" r="1" /><line stroke="rgb(64%,64%,64%)" stroke-width="1" x1="213.0983" x2="211.8355" y1="0" y2="34.5975" /><circle cx="239.8193" cy="17.6468" fill="rgb(0%,76%,100%)" r="1" /><line stroke="rgb(64%,64%,64%)" stroke-width="1" x1="55.5912" x2="61.2703" y1="0" y2="21.9754" /><circle cx="91.1132" cy="7.3878" fill="rgb(0%,76%,100%)" r="1" /><line stroke="rgb(64%,64%,64%)" stroke-width="1" x1="0" x2="43.0473" y1="250" y2="250" /><circle cx="64.6941" cy="246.4274" fill="rgb(0%,76%,100%)" r="1" /><line stroke="rgb(64%,64%,64%)" stroke-width="1" x1="43.0473" x2="80.2075" y1="250" y2="250" /><circle cx="64.6941" cy="246.4274" fill="rgb(0%,76%,100%)" r="1" /><line stroke="rgb(64%,64%,64%)" stroke-width="1" x1="80.2075" x2="86.7287" y1="250" y2="250" /><circle cx="87.2225" cy="235.7095" fill="rgb(100%,0%,0%)" r="1" /><line stroke="rgb(64%,64%,64%)" stroke-width="1" x1="86.7287" x2="116.2145" y1="250" y2="250" /><circle cx="145.8078" cy="242.3634" fill="rgb(0%,76%,100%)" r="1" /><line stroke="rgb(64%,64%,64%)" stroke-width="1" x1="116.2145" x2="183.7364" y1="250" y2="250" /><circle cx="145.8078" cy="242.3634" fill="rgb(0%,76%,100%)" r="1" /><line stroke="rgb(64%,64%,64%)" stroke-width="1" x1="183.7364" x2="250" y1="250" y2="250" /><circle cx="216.1044" cy="228.8053" fill="rgb(0%,76%,100%)" r="1" /><line stroke="rgb(64%,64%,64%)" stroke-width="1" x1="250" x2="250" y1="250" y2="205.6888" /><circle cx="216.1044" cy="228.8053" fill="rgb(0%,76%,100%)" r="1" /><line stroke="rgb(64%,64%,64%)" stroke-width="1" x1="250" x2="250" y1="205.6888" y2="151.4377" /><circle cx="246.7904" cy="164.7867" fill="rgb(0%,76%,100%)" r="1" /><line stroke="rgb(64%,64%,64%)" stroke-width="1" x1="250" x2="250" y1="151.4377" y2="108.9995" /><circle cx="237.1617" cy="146.5719" fill="rgb(100%,0%,0%)" r="1" /><line stroke="rgb(64%,64%,64%)" stroke-width="1" x1="250" x2="250" y1="108.9995" y2="44.092" /><circle cx="239.95" cy="70.5872" fill="rgb(100%,0%,0%)" r="1" /><line stroke="rgb(64%,64%,64%)" stroke-width="1" x1="250" x2="250" y1="44.092" y2="0" /><circle cx="239.8193" cy="17.6468" fill="rgb(0%,76%,100%)" r="1" /><line stroke="rgb(64%,64%,64%)" stroke-width="1" x1="250" x2="213.0983" y1="0" y2="0" /><circle cx="239.8193" cy="17.6468" fill="rgb(0%,76%,100%)" r="1" /><line stroke="rgb(64%,64%,64%)" stroke-width="1" x1="213.0983" x2="183.1863" y1="0" y2="0" /><circle cx="185.1619" cy="15.6519" fill="rgb(0%,76%,100%)" r="1" /><line stroke="rgb(64%,64%,64%)" stroke-width="1" x1="183.1863" x2="142.9755" y1="0" y2="0" /><circle cx="156.9434" cy="40.1741" fill="rgb(0%,76%,100%)" r="1" /><line stroke="rgb(64%,64%,64%)" stroke-width="1" x1="142.9755" x2="120.993" y1="0" y2="0" /><circle cx="112.385" cy="29.5513" fill="rgb(100%,0%,0%)" r="1" /><line stroke="rgb(64%,64%,64%)" stroke-width="1" x1="120.993" x2="55.5912" y1="0" y2="0" /><circle cx="91.1132" cy="7.3878" fill="rgb(0%,76%,100%)" r="1" /><line stroke="rgb(64%,64%,64%)" stroke-width="1" x1="55.5912" x2="0" y1="0" y2="0" /><circle cx="28.0962" cy="23.6733" fill="rgb(0%,76%,100%)" r="1" /><line stroke="rgb(64%,64%,64%)" stroke-width="1" x1="0" x2="0" y1="0" y2="66.0799" /><circle cx="28.0962" cy="23.6733" fill="rgb(0%,76%,100%)" r="1" /><line stroke="rgb(64%,64%,64%)" stroke-width="1" x1="0" x2="0" y1="66.0799" y2="70.2745" /><circle cx="49.1313" cy="52.8954" fill="rgb(0%,76%,100%)" r="1" /><line stroke="rgb(64%,64%,64%)" stroke-width="1" x1="0" x2="0" y1="70.2745" y2="159.9042" /><circle cx="9.5793" cy="121.5011" fill="rgb(0%,76%,100%)" r="1" /><line stroke="rgb(64%,64%,64%)" stroke-width="1" x1="0" x2="0" y1="159.9042" y2="180.5838" /><circle cx="38.3171" cy="149.9866" fill="rgb(100%,0%,0%)" r="1" /><line stroke="rgb(64%,64%,64%)" stroke-width="1" x1="0" x2="0" y1="180.5838" y2="189.6531" /><circle cx="48.2086" cy="171.6214" fill="rgb(100%,0%,0%)" r="1" /><line stroke="rgb(64%,64%,64%)" stroke-width="1" x1="0" x2="0" y1="189.6531" y2="206.8444" /><circle cx="43.5186" cy="207.4157" fill="rgb(0%,76%,100%)" r="1" /><line stroke="rgb(64%,64%,64%)" stroke-width="1" x1="0" x2="0" y1="206.8444" y2="235.3824" /><circle cx="21.8056" cy="244.5102" fill="rgb(0%,76%,100%)" r="1" /><line stroke="rgb(64%,64%,64%)" stroke-width="1" x1="0" x2="0" y1="235.3824" y2="250" /><circle cx="52.4239" cy="78.1314" fill="rgb(100%,0%,0%)" r="1" /><line stroke="rgb(0%,0%,0%)" stroke-width="2" x1="0" x2="250" y1="0" y2="0" /><line stroke="rgb(0%,0%,0%)" stroke-width="2" x1="0" x2="250" y1="250" y2="250" /><line stroke="rgb(0%,0%,0%)" stroke-width="2" x1="0" x2="0" y1="0" y2="250" /><line stroke="rgb(0%,0%,0%)" stroke-width="2" x1="250" x2="250" y1="0" y2="250" /></svg>