<?xml version="1.0" encoding="utf-8" ?>
<svg baseProfile="tiny" height="250" version="1.2" width="250" xmlns="http://www.w3.org/2000/svg" xmlns:ev="http://www.w3.org/2001/xml-events" xmlns:xlink="http://www.w3.org/1999/xlink"><defs /><line stroke="rgb(64%,64%,64%)" stroke-width="1" x1="137.3585" x2="137.3585" y1="250" y2="250" /><circle cx="31.25" cy="234.375" fill="rgb(100%,0%,0%)" r="1" /><line stroke="rgb(64%,64%,64%)" stroke-width="1" x1="62.5" x2="66.8078" y1="207.8303" y2="250" /><circle cx="93.75" cy="234.375" fill="rgb(100%,0%,0%)" r="1" /><line stroke="rgb(64%,64%,64%)" stroke-width="1" x1="125.0" x2="145.0612" y1="207.8303" y2="250" /><circle cx="156.25" cy="234.375" fill="rgb(100%,0%,0%)" r="1" /><line stroke="rgb(64%,64%,64%)" stroke-width="1" x1="187.5" x2="237.9524" y1="192.6787" y2="225.948" /><circle cx="218.75" cy="234.375" fill="rgb(100%,0%,0%)" r="1" /><line stroke="rgb(64%,64%,64%)" stroke-width="1" x1="0" x2="44.5227" y1="241.1045" y2="194.7559" /><circle cx="5.4688" cy="209.6094" fill="rgb(0%,76%,100%)" r="1" /><line stroke="rgb(64%,64%,64%)" stroke-width="1" x1="237.9524" x2="250" y1="225.948" y2="224.6094" /><circle cx="240.0" cy="205.0781" fill="rgb(0%,76%,100%)" r="1" /><line stroke="rgb(64%,64%,64%)" stroke-width="1" x1="189.2164" x2="237.9524" y1="190.5982" y2="225.948" /><circle cx="240.0" cy="205.0781" fill="rgb(0%,76%,100%)" r="1" /><line stroke="rgb(64%,64%,64%)" stroke-width="1" x1="0" x2="44.0625" y1="188.8826" y2="193.9133" /><circle cx="10.0" cy="169.9219" fill="rgb(0%,76%,100%)" r="1" /><line stroke="rgb(64%,64%,64%)" stroke-width="1" x1="62.5" x2="109.375" y1="207.8303" y2="196.4666" /><circle cx="78.125" cy="169.9219" fill="rgb(0%,76%,100%)" r="1" /><line stroke="rgb(64%,64%,64%)" stroke-width="1" x1="125.0" x2="187.5" y1="207.8303" y2="192.6787" /><circle cx="140.625" cy="169.9219" fill="rgb(0%,76%,100%)" r="1" /><line stroke="rgb(64%,64%,64%)" stroke-width="1" x1="44.5227" x2="62.5" y1="194.7559" y2="207.8303" /><circle cx="78.125" cy="169.9219" fill="rgb(0%,76%,100%)" r="1" /><line stroke="rgb(64%,64%,64%)" stroke-width="1" x1="109.375" x2="125.0" y1="196.4666" y2="207.8303" /><circle cx="140.625" cy="169.9219" fill="rgb(0%,76%,100%)" r="1" /><line stroke="rgb(64%,64%,64%)" stroke-width="1" x1="204.2458" x2="250" y1="181.1366" y2="186.4441" /><circle cx="244.5312" cy="166.0156" fill="rgb(0%,76%,100%)" r="1" /><line stroke="rgb(64%,64%,64%)" stroke-width="1" x1="109.375" x2="109.375" y1="167.7734" y2="196.4666" /><circle cx="140.625" cy="169.9219" fill="rgb(0%,76%,100%)" r="1" /><line stroke="rgb(64%,64%,64%)" stroke-width="1" x1="44.0625" x2="44.5227" y1="193.9133" y2="194.7559" /><circle cx="78.125" cy="169.9219" fill="rgb(0%,76%,100%)" r="1" /><line stroke="rgb(64%,64%,64%)" stroke-width="1" x1="44.0625" x2="44.0625" y1="172.2734" y2="193.9133" /><circle cx="78.125" cy="169.9219" fill="rgb(0%,76%,100%)" r="1" /><line stroke="rgb(64%,64%,64%)" stroke-width="1" x1="15.2503" x2="44.0625" y1="151.375" y2="172.2734" /><circle cx="31.25" cy="140.625" fill="rgb(100%,0%,0%)" r="1" /><line stroke="rgb(64%,64%,64%)" stroke-width="1" x1="62.5" x2="109.375" y1="142.7734" y2="167.7734" /><circle cx="93.75" cy="140.625" fill="rgb(100%,0%,0%)" r="1" /><line stroke="rgb(64%,64%,64%)" stroke-width="1" x1="125.0" x2="187.5" y1="142.7734" y2="176.1068" /><circle cx="156.25" cy="140.625" fill="rgb(100%,0%,0%)" r="1" /><line stroke="rgb(64%,64%,64%)" stroke-width="1" x1="204.2458" x2="250" y1="181.1366" y2="134.6785" /><circle cx="218.75" cy="140.625" fill="rgb(100%,0%,0%)" r="1" /><line stroke="rgb(64%,64%,64%)" stroke-width="1" x1="189.2164" x2="187.5" y1="190.5982" y2="192.6787" /><circle cx="218.75" cy="234.375" fill="rgb(100%,0%,0%)" r="1" /><line stroke="rgb(64%,64%,64%)" stroke-width="1" x1="62.5" x2="44.0625" y1="142.7734" y2="172.2734" /><circle cx="78.125" cy="169.9219" fill="rgb(0%,76%,100%)" r="1" /><line stroke="rgb(64%,64%,64%)" stroke-width="1" x1="191.0212" x2="204.2458" y1="185.4967" y2="181.1366" /><circle cx="218.75" cy="140.625" fill="rgb(100%,0%,0%)" r="1" /><line stroke="rgb(64%,64%,64%)" stroke-width="1" x1="191.0212" x2="189.2164" y1="185.4967" y2="190.5982" /><circle cx="240.0" cy="205.0781" fill="rgb(0%,76%,100%)" r="1" /><line stroke="rgb(64%,64%,64%)" stroke-width="1" x1="125.0" x2="109.375" y1="142.7734" y2="167.7734" /><circle cx="140.625" cy="169.9219" fill="rgb(0%,76%,100%)" r="1" /><line stroke="rgb(64%,64%,64%)" stroke-width="1" x1="0" x2="15.2503" y1="153.3406" y2="151.375" /><circle cx="5.4688" cy="134.7656" fill="rgb(0%,76%,100%)" r="1" /><line stroke="rgb(64%,64%,64%)" stroke-width="1" x1="187.5" x2="191.0212" y1="176.1068" y2="185.4967" /><circle cx="218.75" cy="140.625" fill="rgb(100%,0%,0%)" r="1" /><line stroke="rgb(64%,64%,64%)" stroke-width="1" x1="21.2447" x2="15.2503" y1="125.0" y2="151.375" /><circle cx="31.25" cy="140.625" fill="rgb(100%,0%,0%)" r="1" /><line stroke="rgb(64%,64%,64%)" stroke-width="1" x1="187.5" x2="187.5" y1="125.0" y2="176.1068" /><circle cx="218.75" cy="140.625" fill="rgb(100%,0%,0%)" r="1" /><line stroke="rgb(64%,64%,64%)" stroke-width="1" x1="62.5" x2="62.5" y1="125.0" y2="142.7734" /><circle cx="93.75" cy="140.625" fill="rgb(100%,0%,0%)" r="1" /><line stroke="rgb(64%,64%,64%)" stroke-width="1" x1="125.0" x2="125.0" y1="125.0" y2="142.7734" /><circle cx="156.25" cy="140.625" fill="rgb(100%,0%,0%)" r="1" /><line stroke="rgb(64%,64%,64%)" stroke-width="1" x1="21.2447" x2="62.5" y1="125.0" y2="125.0" /><circle cx="31.25" cy="109.375" fill="rgb(100%,0%,0%)" r="1" /><line stroke="rgb(64%,64%,64%)" stroke-width="1" x1="62.5" x2="125.0" y1="125.0" y2="125.0" /><circle cx="93.75" cy="109.375" fill="rgb(100%,0%,0%)" r="1" /><line stroke="rgb(64%,64%,64%)" stroke-width="1" x1="125.0" x2="187.5" y1="125.0" y2="125.0" /><circle cx="156.25" cy="109.375" fill="rgb(100%,0%,0%)" r="1" /><line stroke="rgb(64%,64%,64%)" stroke-width="1" x1="187.5" x2="250" y1="125.0" y2="121.84" /><circle cx="218.75" cy="109.375" fill="rgb(100%,0%,0%)" r="1" /><line stroke="rgb(64%,64%,64%)" stroke-width="1" x1="5.8564" x2="21.2447" y1="109.375" y2="125.0" /><circle cx="31.25" cy="109.375" fill="rgb(100%,0%,0%)" r="1" /><line stroke="rgb(64%,64%,64%)" stroke-width="1" x1="62.5" x2="62.5" y1="125.0" y2="125.0" /><circle cx="93.75" cy="140.625" fill="rgb(100%,0%,0%)" r="1" /><line stroke="rgb(64%,64%,64%)" stroke-width="1" x1="62.5" x2="62.5" y1="82.8303" y2="125.0" /><circle cx="93.75" cy="109.375" fill="rgb(100%,0%,0%)" r="1" /><line stroke="rgb(64%,64%,64%)" stroke-width="1" x1="125.0" x2="125.0" y1="125.0" y2="125.0" /><circle cx="156.25" cy="109.375" fill="rgb(100%,0%,0%)" r="1" /><line stroke="rgb(64%,64%,64%)" stroke-width="1" x1="125.0" x2="125.0" y1="82.8303" y2="125.0" /><circle cx="156.25" cy="109.375" fill="rgb(100%,0%,0%)" r="1" /><line stroke="rgb(64%,64%,64%)" stroke-width="1" x1="187.5" x2="187.5" y1="125.0" y2="125.0" /><circle cx="218.75" cy="140.625" fill="rgb(100%,0%,0%)" r="1" /><line stroke="rgb(64%,64%,64%)" stroke-width="1" x1="187.5" x2="187.5" y1="67.6787" y2="125.0" /><circle cx="218.75" cy="109.375" fill="rgb(100%,0%,0%)" r="1" /><line stroke="rgb(64%,64%,64%)" stroke-width="1" x1="0" x2="5.8564" y1="109.375" y2="109.375" /><circle cx="5.4688" cy="83.9844" fill="rgb(0%,76%,100%)" r="1" /><line stroke="rgb(64%,64%,64%)" stroke-width="1" x1="44.7281" x2="5.8564" y1="69.9053" y2="109.375" /><circle cx="31.25" cy="109.375" fill="rgb(100%,0%,0%)" r="1" /><line stroke="rgb(64%,64%,64%)" stroke-width="1" x1="189.2164" x2="250" y1="65.5982" y2="109.6866" /><circle cx="240.0" cy="80.0781" fill="rgb(0%,76%,100%)" r="1" /><line stroke="rgb(64%,64%,64%)" stroke-width="1" x1="0" x2="44.0625" y1="63.5559" y2="68.6672" /><circle cx="10.0" cy="44.9219" fill="rgb(0%,76%,100%)" r="1" /><line stroke="rgb(64%,64%,64%)" stroke-width="1" x1="62.5" x2="109.375" y1="82.8303" y2="71.4666" /><circle cx="78.125" cy="44.9219" fill="rgb(0%,76%,100%)" r="1" /><line stroke="rgb(64%,64%,64%)" stroke-width="1" x1="125.0" x2="187.5" y1="82.8303" y2="67.6787" /><circle cx="140.625" cy="44.9219" fill="rgb(0%,76%,100%)" r="1" /><line stroke="rgb(64%,64%,64%)" stroke-width="1" x1="44.7281" x2="62.5" y1="69.9053" y2="82.8303" /><circle cx="78.125" cy="44.9219" fill="rgb(0%,76%,100%)" r="1" /><line stroke="rgb(64%,64%,64%)" stroke-width="1" x1="109.375" x2="125.0" y1="71.4666" y2="82.8303" /><circle cx="140.625" cy="44.9219" fill="rgb(0%,76%,100%)" r="1" /><line stroke="rgb(64%,64%,64%)" stroke-width="1" x1="204.7934" x2="250" y1="55.956" y2="61.1174" /><circle cx="244.5312" cy="40.3906" fill="rgb(0%,76%,100%)" r="1" /><line stroke="rgb(64%,64%,64%)" stroke-width="1" x1="109.375" x2="109.375" y1="42.7734" y2="71.4666" /><circle cx="140.625" cy="44.9219" fill="rgb(0%,76%,100%)" r="1" /><line stroke="rgb(64%,64%,64%)" stroke-width="1" x1="44.0625" x2="44.7281" y1="68.6672" y2="69.9053" /><circle cx="78.125" cy="44.9219" fill="rgb(0%,76%,100%)" r="1" /><line stroke="rgb(64%,64%,64%)" stroke-width="1" x1="44.0625" x2="44.0625" y1="47.2734" y2="68.6672" /><circle cx="78.125" cy="44.9219" fill="rgb(0%,76%,100%)" r="1" /><line stroke="rgb(64%,64%,64%)" stroke-width="1" x1="12.0476" x2="44.0625" y1="24.052" y2="47.2734" /><circle cx="31.25" cy="15.625" fill="rgb(100%,0%,0%)" r="1" /><line stroke="rgb(64%,64%,64%)" stroke-width="1" x1="62.5" x2="109.375" y1="17.7734" y2="42.7734" /><circle cx="93.75" cy="15.625" fill="rgb(100%,0%,0%)" r="1" /><line stroke="rgb(64%,64%,64%)" stroke-width="1" x1="125.0" x2="187.5" y1="17.7734" y2="51.1068" /><circle cx="156.25" cy="15.625" fill="rgb(100%,0%,0%)" r="1" /><line stroke="rgb(64%,64%,64%)" stroke-width="1" x1="204.7934" x2="250" y1="55.956" y2="8.8955" /><circle cx="218.75" cy="15.625" fill="rgb(100%,0%,0%)" r="1" /><line stroke="rgb(64%,64%,64%)" stroke-width="1" x1="189.2164" x2="187.5" y1="65.5982" y2="67.6787" /><circle cx="218.75" cy="109.375" fill="rgb(100%,0%,0%)" r="1" /><line stroke="rgb(64%,64%,64%)" stroke-width="1" x1="191.0212" x2="204.7934" y1="60.4967" y2="55.956" /><circle cx="218.75" cy="15.625" fill="rgb(100%,0%,0%)" r="1" /><line stroke="rgb(64%,64%,64%)" stroke-width="1" x1="62.5" x2="44.0625" y1="17.7734" y2="47.2734" /><circle cx="78.125" cy="44.9219" fill="rgb(0%,76%,100%)" r="1" /><line stroke="rgb(64%,64%,64%)" stroke-width="1" x1="191.0212" x2="189.2164" y1="60.4967" y2="65.5982" /><circle cx="240.0" cy="80.0781" fill="rgb(0%,76%,100%)" r="1" /><line stroke="rgb(64%,64%,64%)" stroke-width="1" x1="125.0" x2="109.375" y1="17.7734" y2="42.7734" /><circle cx="140.625" cy="44.9219" fill="rgb(0%,76%,100%)" r="1" /><line stroke="rgb(64%,64%,64%)" stroke-width="1" x1="187.5" x2="191.0212" y1="51.1068" y2="60.4967" /><circle cx="218.75" cy="15.625" fill="rgb(100%,0%,0%)" r="1" /><line stroke="rgb(64%,64%,64%)" stroke-width="1" x1="0" x2="12.0476" y1="25.3906" y2="24.052" /><circle cx="5.4688" cy="4.1406" fill="rgb(0%,76%,100%)" r="1" /><line stroke="rgb(64%,64%,64%)" stroke-width="1" x1="187.5" x2="187.5" y1="0" y2="51.1068" /><circle cx="218.75" cy="15.625" fill="rgb(100%,0%,0%)" r="1" /><line stroke="rgb(64%,64%,64%)" stroke-width="1" x1="22.7617" x2="12.0476" y1="0" y2="24.052" /><circle cx="31.25" cy="15.625" fill="rgb(100%,0%,0%)" r="1" /><line stroke="rgb(64%,64%,64%)" stroke-width="1" x1="64.0779" x2="62.5" y1="0" y2="17.7734" /><circle cx="93.75" cy="15.625" fill="rgb(100%,0%,0%)" r="1" /><line stroke="rgb(64%,64%,64%)" stroke-width="1" x1="125.0" x2="125.0" y1="0" y2="17.7734" /><circle cx="156.25" cy="15.625" fill="rgb(100%,0%,0%)" r="1" /><line stroke="rgb(64%,64%,64%)" stroke-width="1" x1="0" x2="66.8078" y1="250" y2="250" /><circle cx="244.5312" cy="245.8594" fill="rgb(0%,76%,100%)" r="1" /><line stroke="rgb(64%,64%,64%)" stroke-width="1" x1="66.8078" x2="137.3585" y1="250" y2="250" /><circle cx="93.75" cy="234.375" fill="rgb(100%,0%,0%)" r="1" /><line stroke="rgb(64%,64%,64%)" stroke-width="1" x1="137.3585" x2="137.3585" y1="250" y2="250" /><circle cx="244.5312" cy="245.8594" fill="rgb(0%,76%,100%)" r="1" /><line stroke="rgb(64%,64%,64%)" stroke-width="1" x1="137.3585" x2="145.0612" y1="250" y2="250" /><circle cx="31.25" cy="234.375" fill="rgb(100%,0%,0%)" r="1" /><line stroke="rgb(64%,64%,64%)" stroke-width="1" x1="145.0612" x2="250" y1="250" y2="250" /><circle cx="156.25" cy="234.375" fill="rgb(100%,0%,0%)" r="1" /><line stroke="rgb(64%,64%,64%)" stroke-width="1" x1="250" x2="250" y1="250" y2="224.6094" /><circle cx="156.25" cy="234.375" fill="rgb(100%,0%,0%)" r="1" /><line stroke="rgb(64%,64%,64%)" stroke-width="1" x1="250" x2="250" y1="224.6094" y2="186.4441" /><circle cx="240.0" cy="205.0781" fill="rgb(0%,76%,100%)" r="1" /><line stroke="rgb(64%,64%,64%)" stroke-width="1" x1="250" x2="250" y1="186.4441" y2="134.6785" /><circle cx="244.5312" cy="166.0156" fill="rgb(0%,76%,100%)" r="1" /><line stroke="rgb(64%,64%,64%)" stroke-width="1" x1="250" x2="250" y1="134.6785" y2="121.84" /><circle cx="218.75" cy="140.625" fill="rgb(100%,0%,0%)" r="1" /><line stroke="rgb(64%,64%,64%)" stroke-width="1" x1="250" x2="250" y1="121.84" y2="109.6866" /><circle cx="218.75" cy="109.375" fill="rgb(100%,0%,0%)" r="1" /><line stroke="rgb(64%,64%,64%)" stroke-width="1" x1="250" x2="250" y1="109.6866" y2="61.1174" /><circle cx="240.0" cy="80.0781" fill="rgb(0%,76%,100%)" r="1" /><line stroke="rgb(64%,64%,64%)" stroke-width="1" x1="250" x2="250" y1="61.1174" y2="8.8955" /><circle cx="244.5312" cy="40.3906" fill="rgb(0%,76%,100%)" r="1" /><line stroke="rgb(64%,64%,64%)" stroke-width="1" x1="250" x2="250" y1="8.8955" y2="0" /><circle cx="218.75" cy="15.625" fill="rgb(100%,0%,0%)" r="1" /><line stroke="rgb(64%,64%,64%)" stroke-width="1" x1="250" x2="187.5" y1="0" y2="0" /><circle cx="218.75" cy="15.625" fill="rgb(100%,0%,0%)" r="1" /><line stroke="rgb(64%,64%,64%)" stroke-width="1" x1="187.5" x2="125.0" y1="0" y2="0" /><circle cx="156.25" cy="15.625" fill="rgb(100%,0%,0%)" r="1" /><line stroke="rgb(64%,64%,64%)" stroke-width="1" x1="125.0" x2="64.0779" y1="0" y2="0" /><circle cx="93.75" cy="15.625" fill="rgb(100%,0%,0%)" r="1" /><line stroke="rgb(64%,64%,64%)" stroke-width="1" x1="64.0779" x2="22.7617" y1="0" y2="0" /><circle cx="31.25" cy="15.625" fill="rgb(100%,0%,0%)" r="1" /><line stroke="rgb(64%,64%,64%)" stroke-width="1" x1="22.7617" x2="0" y1="0" y2="0" /><circle cx="5.4688" cy="4.1406" fill="rgb(0%,76%,100%)" r="1" /><line stroke="rgb(64%,64%,64%)" stroke-width="1" x1="0" x2="0" y1="0" y2="25.3906" /><circle cx="5.4688" cy="4.1406" fill="rgb(0%,76%,100%)" r="1" /><line stroke="rgb(64%,64%,64%)" stroke-width="1" x1="0" x2="0" y1="25.3906" y2="63.5559" /><circle cx="10.0" cy="44.9219" fill="rgb(0%,76%,100%)" r="1" /><line stroke="rgb(64%,64%,64%)" stroke-width="1" x1="0" x2="0" y1="63.5559" y2="109.375" /><circle cx="5.4688" cy="83.9844" fill="rgb(0%,76%,100%)" r="1" /><line stroke="rgb(64%,64%,64%)" stroke-width="1" x1="0" x2="0" y1="109.375" y2="153.3406" /><circle cx="5.4688" cy="134.7656" fill="rgb(0%,76%,100%)" r="1" /><line stroke="rgb(64%,64%,64%)" stroke-width="1" x1="0" x2="0" y1="153.3406" y2="188.8826" /><circle cx="10.0" cy="169.9219" fill="rgb(0%,76%,100%)" r="1" /><line stroke="rgb(64%,64%,64%)" stroke-width="1" x1="0" x2="0" y1="188.8826" y2="241.1045" /><circle cx="5.4688" cy="209.6094" fill="rgb(0%,76%,100%)" r="1" /><line stroke="rgb(64%,64%,64%)" stroke-width="1" x1="0" x2="0" y1="241.1045" y2="250" /><circle cx="31.25" cy="234.375" fill="rgb(100%,0%,0%)" r="1" /><line stroke="rgb(0%,0%,0%)" stroke-width="2" x1="0" x2="250" y1="0" y2="0" /><line stroke="rgb(0%,0%,0%)" stroke-width="2" x1="0" x2="250" y1="250" y2="250" /><line stroke="rgb(0%,0%,0%)" stroke-width="2" x1="0" x2="0" y1="0" y2="250" /><line stroke="rgb(0%,0%,0%)" stroke-width="2" x1="250" x2="250" y1="0" y2="250" /></svg>